<svg width="59" height="59" viewBox="0 0 59 59" fill="none" xmlns="http://www.w3.org/2000/svg">
<path d="M38.0132 32.1606C31.7541 32.1606 26.6623 37.2525 26.6623 43.5115C26.6623 49.7706 31.7541 54.8624 38.0132 54.8624C44.2722 54.8624 49.3641 49.7706 49.3641 43.5115C49.3641 37.2525 44.2722 32.1606 38.0132 32.1606ZM38.0132 52.9706C32.7974 52.9706 28.5541 48.7273 28.5541 43.5115C28.5541 38.2958 32.7974 34.0525 38.0132 34.0525C43.2289 34.0525 47.4722 38.2958 47.4722 43.5115C47.4722 48.7273 43.2289 52.9706 38.0132 52.9706Z" fill="#0771EB"/>
<path d="M38.0131 49.1871V51.0789C38.7557 51.0789 39.4906 50.971 40.1972 50.7592L39.6524 48.9478C39.1227 49.1067 38.5712 49.1871 38.0131 49.1871Z" fill="#0771EB"/>
<path d="M38.0131 35.9446V37.8364C41.1431 37.8364 43.6886 40.3818 43.6886 43.5118C43.6886 45.4216 42.737 47.1914 41.1431 48.248L42.1874 49.8248C44.3119 48.4173 45.5804 46.0573 45.5804 43.5118C45.5804 39.3394 42.1855 35.9446 38.0131 35.9446Z" fill="#0771EB"/>
<path d="M33.2836 18.9182C33.2836 15.861 31.458 13.2276 28.8426 12.0348C29.8178 11.1674 30.4459 9.9179 30.4459 8.51323C30.4459 5.90536 28.3242 3.78369 25.7164 3.78369C23.1085 3.78369 20.9868 5.90536 20.9868 8.51323C20.9868 9.9179 21.6149 11.1674 22.5901 12.0348C19.9747 13.2276 18.1491 15.861 18.1491 18.9182V20.81H33.2836V18.9182ZM22.8786 8.51323C22.8786 6.9487 24.1518 5.67551 25.7164 5.67551C27.2809 5.67551 28.5541 6.9487 28.5541 8.51323C28.5541 10.0778 27.2809 11.3509 25.7164 11.3509C24.1518 11.3509 22.8786 10.0778 22.8786 8.51323ZM20.0409 18.9182C20.0409 15.7882 22.5864 13.2428 25.7164 13.2428C28.8464 13.2428 31.3918 15.7882 31.3918 18.9182H20.0409Z" fill="#0771EB"/>
<path d="M35.1754 3.78369H40.8509V5.67551H35.1754V3.78369Z" fill="#0771EB"/>
<path d="M35.1754 7.56714H40.8509V9.45895H35.1754V7.56714Z" fill="#0771EB"/>
<path d="M35.1754 11.3508H40.8509V13.2426H35.1754V11.3508Z" fill="#0771EB"/>
<path d="M35.1754 15.1345H40.8509V17.0263H35.1754V15.1345Z" fill="#0771EB"/>
<path d="M35.1754 18.9182H40.8509V20.81H35.1754V18.9182Z" fill="#0771EB"/>
<path d="M48.5691 12.5479L48.9626 10.6974L54.5139 11.8781L54.1204 13.7285L48.5691 12.5479Z" fill="#0771EB"/>
<path d="M47.782 16.2495L48.1755 14.3991L53.7268 15.5797L53.3333 17.4302L47.782 16.2495Z" fill="#0771EB"/>
<path d="M46.9939 19.9497L47.3874 18.0993L52.9378 19.2797L52.5443 21.1302L46.9939 19.9497Z" fill="#0771EB"/>
<path d="M46.2079 23.6514L46.6014 21.8009L52.1527 22.9816L51.7592 24.832L46.2079 23.6514Z" fill="#0771EB"/>
<path d="M45.4151 27.3484L45.8086 25.498L51.3599 26.6786L50.9664 28.529L45.4151 27.3484Z" fill="#0771EB"/>
<path d="M59 8.9549L44.6345 5.90151V0H14.3655V5.90151L0 8.9549L6.34041 38.7822H4.90642C2.29855 38.7822 0.176885 40.9039 0.176885 43.5117C0.176885 46.1196 2.29855 48.2413 4.90642 48.2413H19.095V46.3494H23.1549C24.4876 53.3416 30.6389 58.6462 38.0132 58.6462C46.358 58.6462 53.1477 51.8565 53.1477 43.5117C53.1477 42.0484 52.9282 40.6381 52.5395 39.2987L59 8.9549ZM56.7544 10.4116L51.2691 36.2226C49.7642 33.4974 47.4391 31.2953 44.6345 29.9238V7.83589L56.7544 10.4116ZM42.7427 1.89181V29.1443C42.1279 28.941 41.4969 28.7764 40.8509 28.6534V22.7018H18.1491V36.8904H24.4252C23.8454 38.0756 23.4093 39.3412 23.1549 40.674H19.095V38.7822H16.2573V1.89181H42.7427ZM25.5102 34.9986H20.0409V24.5936H38.9591V28.4255C38.645 28.4056 38.3329 28.3772 38.0132 28.3772C32.823 28.3772 28.2372 31.0049 25.5102 34.9986ZM12.1436 38.7822L10.666 31.8307L14.3655 31.0447V38.7822H12.1436ZM10.2773 22.0084C11.1031 20.7371 12.3744 19.8631 13.8575 19.5481C14.0221 19.5131 14.1943 19.4942 14.3655 19.4753V25.2425L9.4865 26.2801C9.17057 24.797 9.45245 23.2797 10.2773 22.0084ZM11.3282 17.3025C10.6925 16.8892 10.2555 16.2545 10.0985 15.5119C9.94054 14.7703 10.0805 14.0127 10.4939 13.377C10.9073 12.7414 11.542 12.3044 12.2835 12.1464C13.0024 11.9941 13.7393 12.1483 14.3655 12.5456V17.2969C14.0798 17.4823 13.7828 17.6308 13.464 17.6979C12.7215 17.8549 11.9638 17.7149 11.3282 17.3025ZM2.24558 10.4116L14.3655 7.83589V10.4475C13.5757 10.1789 12.7262 10.1174 11.8901 10.2962C10.6547 10.5592 9.59528 11.2866 8.90761 12.346C8.21993 13.4054 7.98535 14.6701 8.24831 15.9045C8.51033 17.1408 9.23962 18.2002 10.299 18.8879C10.3766 18.938 10.4589 18.9749 10.5384 19.0203C9.82135 19.5519 9.19232 20.2065 8.69194 20.9774C7.5909 22.6724 7.21538 24.6948 7.63631 26.6717L8.02791 28.5238L14.3655 27.1759V29.1103L8.42141 30.374L10.2082 38.7822H8.27479L2.24558 10.4116ZM17.2032 46.3494H4.90642C3.34189 46.3494 2.0687 45.0763 2.0687 43.5117C2.0687 41.9472 3.34189 40.674 4.90642 40.674H17.2032V46.3494ZM19.095 44.4576V42.5658H22.9269C22.907 42.8799 22.8787 43.192 22.8787 43.5117C22.8787 43.8314 22.907 44.1436 22.9269 44.4576H19.095ZM38.0132 56.7544C30.7108 56.7544 24.7705 50.8141 24.7705 43.5117C24.7705 36.2093 30.7108 30.269 38.0132 30.269C45.3156 30.269 51.2559 36.2093 51.2559 43.5117C51.2559 50.8141 45.3156 56.7544 38.0132 56.7544Z" fill="#0771EB"/>
</svg>
