<svg width="58" height="58" viewBox="0 0 58 58" fill="none" xmlns="http://www.w3.org/2000/svg">
<path d="M58 32.7935V25.2065C58 24.7469 57.6663 24.3554 57.2124 24.2828L52.5714 23.5399C51.9706 20.9337 50.9486 18.4686 49.5266 16.1959L52.2848 12.3864C52.5544 12.0142 52.5135 11.5013 52.1887 11.1763L46.8238 5.81158C46.4989 5.48673 45.986 5.4458 45.6136 5.71534L41.8041 8.4735C39.5307 7.05133 37.0659 6.02943 34.4601 5.42861L33.7172 0.787677C33.6446 0.333851 33.2529 0 32.7934 0H25.2064C24.7468 0 24.3553 0.333851 24.2827 0.787561L23.5398 5.4285C20.9337 6.02931 18.4686 7.05121 16.1957 8.47326L12.3863 5.71522C12.0142 5.44569 11.5012 5.48661 11.1761 5.81146L5.81123 11.1762C5.48638 11.5012 5.44545 12.0141 5.71511 12.3864L8.47326 16.1958C7.05062 18.47 6.02873 20.9346 5.42838 23.5398L0.787444 24.2827C0.333734 24.3554 0 24.7469 0 25.2065V32.7935C0 33.2531 0.333734 33.6446 0.78756 33.7172L5.4285 34.4601C6.02931 37.0661 7.05133 39.5312 8.47338 41.8041L5.71522 45.6136C5.44557 45.9858 5.4865 46.4987 5.81134 46.8237L11.1762 52.1884C11.5014 52.5135 12.0143 52.554 12.3864 52.2847L16.1958 49.5265C18.47 50.9491 20.935 51.9712 23.5399 52.5714L24.2828 57.2123C24.3554 57.666 24.7471 57.9999 25.2065 57.9999H32.7935C33.2531 57.9999 33.6446 57.666 33.7172 57.2123L34.3837 53.0488C36.8203 56.0662 40.5478 57.9999 44.7192 57.9999C52.0423 58 58 52.0423 58 44.7192C58 40.5478 56.0662 36.8202 53.0488 34.3836L57.2123 33.7172C57.6663 33.6447 58 33.2532 58 32.7935ZM45.7104 31.4754C45.3831 31.4511 45.0527 31.4385 44.7192 31.4385C42.7109 31.4385 40.8059 31.8874 39.0977 32.6887V31.2095C39.0977 28.9991 37.4239 27.3162 34.5052 26.5923C33.4881 26.3401 32.472 26.1593 31.4589 26.0452C33.0082 24.9578 34.0586 22.878 34.0586 20.4947C34.0586 17.2713 32.1203 15.2687 29.0001 15.2687C25.8798 15.2687 23.9415 17.2713 23.9415 20.4947C23.9415 22.8728 24.9875 24.9487 26.5313 26.0379C25.5091 26.1518 24.4935 26.3354 23.4872 26.5942C20.5306 27.3541 18.9023 28.9932 18.9023 31.2095V39.5326C18.9023 40.0492 19.3211 40.4681 19.8378 40.4681H32.1362C31.6839 41.8034 31.4385 43.2332 31.4385 44.7192C31.4385 45.0526 31.4511 45.3831 31.4754 45.7104C30.6571 45.8306 29.8278 45.8916 29 45.8916C19.686 45.8916 12.1084 38.314 12.1084 28.9999C12.1084 19.6857 19.686 12.1083 29 12.1083C38.314 12.1083 45.8916 19.686 45.8916 29C45.8916 29.8278 45.8306 30.6571 45.7104 31.4754ZM33.9988 32.1873C33.4821 32.1873 33.0633 32.6062 33.0633 33.1228V38.3589C33.0201 38.4377 32.978 38.5173 32.9364 38.597H24.9365V33.1228C24.9365 32.6062 24.5176 32.1873 24.001 32.1873C23.4844 32.1873 23.0655 32.6062 23.0655 33.1228V38.597H20.7731V31.2094C20.7731 29.568 22.5022 28.779 23.9528 28.4061C27.2418 27.5603 30.6403 27.561 34.0547 28.4081C35.2393 28.7019 37.2266 29.4565 37.2266 31.2094V33.7596C36.3886 34.3345 35.6192 35.0025 34.9342 35.7493V33.1227C34.9342 32.6062 34.5154 32.1873 33.9988 32.1873ZM29 24.978C27.2423 24.978 25.8123 22.9667 25.8123 20.4946C25.8123 17.5754 27.8095 17.1396 29 17.1396C30.1905 17.1396 32.1875 17.5755 32.1875 20.4946C32.1875 22.9668 30.7575 24.978 29 24.978ZM56.129 44.7192C56.129 51.0107 51.0107 56.129 44.7192 56.129C38.4278 56.129 33.3094 51.0107 33.3094 44.7192C33.3094 38.4277 38.4278 33.3094 44.7192 33.3094C51.0107 33.3094 56.129 38.4278 56.129 44.7192ZM56.129 31.9959L51.6444 32.7136C51.4096 32.7513 51.2048 32.8761 51.0625 33.0539C49.9779 32.4618 48.8017 32.0172 47.5616 31.7458C47.6949 30.838 47.7625 29.9181 47.7625 29C47.7625 18.6543 39.3456 10.2375 28.9999 10.2375C18.6541 10.2375 10.2374 18.6544 10.2374 29C10.2374 39.3456 18.6542 47.7627 28.9999 47.7627C29.9181 47.7627 30.8379 47.6951 31.7456 47.5618C32.0172 48.8019 32.4618 49.978 33.0539 51.0627C32.8761 51.2049 32.7513 51.4098 32.7136 51.6447L31.9958 56.129H26.0041L25.2862 51.6446C25.2246 51.2594 24.9304 50.9529 24.5481 50.8756C21.7328 50.3059 19.0862 49.2087 16.6819 47.6144C16.3571 47.399 15.9325 47.4076 15.6164 47.6364L11.9353 50.3017L7.69856 46.0649L10.3638 42.3836C10.5925 42.0677 10.6013 41.6431 10.3857 41.318C8.79215 38.9154 7.69482 36.2688 7.12453 33.4519C7.04712 33.0695 6.74063 32.7754 6.35556 32.7138L1.87097 31.9959V26.0041L6.35544 25.2862C6.74063 25.2246 7.04712 24.9304 7.12441 24.5482C7.69424 21.7327 8.79144 19.0862 10.3856 16.682C10.6013 16.3571 10.5925 15.9323 10.3636 15.6164L7.69845 11.9354L11.9351 7.69857L15.6163 10.3638C15.9321 10.5925 16.3569 10.6011 16.6819 10.3856C19.0845 8.79215 21.7311 7.69482 24.5481 7.12441C24.9304 7.047 25.2245 6.74051 25.2862 6.35544L26.0041 1.87097H31.9958L32.7136 6.35544C32.7753 6.74051 33.0695 7.047 33.4517 7.12441C36.2681 7.69471 38.9147 8.79203 41.318 10.3856C41.6428 10.601 42.0674 10.5925 42.3835 10.3636L46.0646 7.69845L50.3014 11.9353L47.6362 15.6164C47.4075 15.9323 47.3987 16.3569 47.6143 16.682C49.2077 19.0843 50.3049 21.7309 50.8755 24.5482C50.9529 24.9304 51.2594 25.2245 51.6444 25.2862L56.129 26.0041V31.9959ZM48.4853 39.5695L42.8956 45.2406L40.9533 43.2983C40.4335 42.7785 39.7424 42.4921 39.0072 42.4921C38.272 42.4921 37.581 42.7784 37.0612 43.2982C36.5413 43.8179 36.2549 44.5092 36.2549 45.2442C36.2549 45.9794 36.5412 46.6705 37.0611 47.1903L40.9571 51.0863C41.4937 51.6228 42.1984 51.8911 42.9032 51.8909C43.6079 51.8909 44.3128 51.6227 44.8493 51.0862C46.8363 49.0991 50.8928 44.9467 52.3841 43.4406C52.9015 42.9202 53.1853 42.2297 53.1833 41.496C53.1812 40.7622 52.8935 40.0731 52.3733 39.5558C51.2994 38.4877 49.5564 38.4925 48.4853 39.5695ZM51.0559 42.123C49.5587 43.6351 45.5056 47.7842 43.5262 49.7634C43.1826 50.107 42.6236 50.107 42.2801 49.7634L38.3842 45.8674H38.3841C38.2177 45.701 38.126 45.4797 38.126 45.2443C38.126 45.0091 38.2177 44.7877 38.3842 44.6213C38.5506 44.4549 38.7717 44.3632 39.0072 44.3632C39.2426 44.3632 39.4637 44.4549 39.6303 44.6213L42.239 47.2299C42.4144 47.4053 42.6523 47.5039 42.9004 47.5039H42.9037C43.1531 47.5029 43.3916 47.4026 43.5665 47.2251L49.8148 40.886C50.1554 40.5434 50.7113 40.542 51.054 40.8826C51.22 41.0476 51.3116 41.2674 51.3123 41.5013C51.3128 41.7352 51.2224 41.9555 51.0559 42.123Z" fill="#0771EB"/>
</svg>
