<svg width="56" height="56" viewBox="0 0 56 56" fill="none" xmlns="http://www.w3.org/2000/svg">
<path d="M40.6453 18.9678C41.1441 18.9678 41.5485 18.5634 41.5485 18.0646C41.5485 17.5658 41.1441 17.1614 40.6453 17.1614C40.1465 17.1614 39.7421 17.5658 39.7421 18.0646C39.7421 18.5634 40.1465 18.9678 40.6453 18.9678Z" fill="#0771EB"/>
<path d="M49.205 4.78647C44.8388 3.7306 40.441 5.93176 38.6951 9.93576H36.129C35.1328 9.93576 34.3226 10.746 34.3226 11.7422V13.5487C34.3226 14.5449 35.1328 15.3551 36.129 15.3551H37.3665C36.8074 16.6612 36.129 18.8289 36.129 21.6777V22.5809H38.0267C38.4467 24.6394 40.2703 26.1938 42.4516 26.1938V30.0506C41.5836 30.5239 40.777 31.1074 40.0752 31.8092C39.9461 31.9383 39.8305 32.0783 39.7085 32.2129L30.7097 29.6414V19.8712H23.8307L21.8382 17.8787L18.5839 20.2L17.9263 16.2583H12.7843L12.1258 20.2009L8.87148 17.8796L6.8609 19.8902C3.04658 20.0817 0 23.2367 0 27.0971V48.7745C0 52.7586 3.24168 56.0003 7.22581 56.0003H32.5161V48.7745H37.0323V56.0003H52.3871V37.0325V36.1293C52.3871 33.7882 51.5245 30.5871 49.6314 28.5178L49.3215 26.3528L50.4813 25.6284C53.937 23.467 56 19.7448 56 15.6703V13.6516C56 9.39834 53.2054 5.75202 49.205 4.78647ZM48.7814 6.54234C51.8849 7.29202 54.143 10.2284 54.189 13.5487H48.7742V11.7422C48.7742 10.746 47.964 9.93576 46.9677 9.93576H40.7084C42.2908 7.19537 45.5424 5.76105 48.7814 6.54234ZM36.129 11.7422H46.9677V13.5487H36.129V11.7422ZM44.2581 26.1938H46.0645V24.3874H42.4516C40.9577 24.3874 39.7419 23.1716 39.7419 21.6777V20.7745H37.9617C38.1188 18.0512 38.9534 16.1436 39.3635 15.3551H46.9677V18.968H47.871C48.3695 18.968 48.7742 19.3736 48.7742 19.8712C48.7742 20.2127 48.6423 20.5333 48.4003 20.7745L46.9135 22.2612L47.7689 28.2514L44.567 29.1663C44.4613 29.1961 44.3628 29.2431 44.2581 29.2765V26.1938ZM45.0628 30.9032L47.936 30.0822L44.557 32.8985L43.8019 31.3883C44.2093 31.1977 44.6275 31.0279 45.0628 30.9032ZM38.5524 33.7611C37.9526 34.7429 37.52 35.8114 37.2761 36.9377L32.5161 35.5774V32.5164H30.7097V31.5201L38.5524 33.7611ZM28.9032 45.1616C28.9032 44.1653 29.7134 43.3551 30.7097 43.3551H32.5161V46.968H30.7097C29.7134 46.968 28.9032 46.1578 28.9032 45.1616ZM32.5161 41.5487V37.4562L37.0521 38.7523C37.0467 38.886 37.0323 39.0196 37.0323 39.1551V41.5487H32.5161ZM25.3617 21.6777H28.9032V32.5164H24.0719L23.1542 31.2302L27.0968 30.5718V25.4297L23.1542 24.7712L25.3617 21.6777ZM9.06658 20.238L12.2089 22.4798L12.6813 22.2666C12.8348 22.1971 12.9947 22.1275 13.1546 22.0742L13.6703 21.9026L14.3134 18.0648H16.3972L17.0385 21.9026L17.5542 22.0742C17.715 22.1275 17.8739 22.1971 18.0275 22.2666L18.4999 22.4798L21.6422 20.238L23.1172 21.7129L20.8754 24.8543L21.0876 25.3267C21.1563 25.4794 21.2267 25.6392 21.28 25.8L21.4507 26.3176L25.2894 26.9589V29.0426L21.4507 29.6839L21.28 30.2014C21.2267 30.3622 21.1563 30.5221 21.0876 30.6747L20.8754 31.1471L21.8535 32.5164H15.3548H8.85613L9.83342 31.1471L9.62116 30.6747C9.55252 30.5221 9.48206 30.3622 9.42877 30.2014L9.25806 29.6839L5.41935 29.0417V26.958L9.25806 26.3167L9.42877 25.7991C9.48206 25.6383 9.55252 25.4785 9.62116 25.3258L9.83342 24.8534L7.59161 21.712L9.06658 20.238ZM5.5449 21.9532L7.55639 24.7703L3.6129 25.4288V30.5709L7.55548 31.2293L6.65858 32.4857C3.93626 32.2021 1.80645 29.8943 1.80645 27.0971C1.80645 24.7008 3.37084 22.6667 5.5449 21.9532ZM1.80645 48.7745V31.8607C3.13148 33.3663 5.0671 34.3229 7.22581 34.3229H30.7097V41.5487C28.7172 41.5487 27.0968 43.1691 27.0968 45.1616H25.2903V36.1293H18.0645V45.1616H14.4516V54.1938H7.22581C4.23703 54.1938 1.80645 51.7632 1.80645 48.7745ZM23.4839 45.1616H19.871V37.9358H23.4839V45.1616ZM30.7097 54.1938H16.2581V46.968H27.599C28.2258 48.0429 29.3783 48.7745 30.7097 48.7745V54.1938ZM50.5806 54.1938H38.8387V48.7745H42.7434C45.7014 48.7745 48.4048 47.2769 49.9719 44.7678C50.1914 44.4164 50.3937 44.0732 50.5806 43.7363V54.1938ZM50.5806 37.0325C50.5806 39.446 49.9809 41.3463 48.4409 43.8103C47.2053 45.7875 45.0746 46.968 42.7434 46.968H34.3226V43.3551H42.7966C43.4867 43.3551 44.1054 42.9722 44.4125 42.3571L46.8729 37.4372L45.257 36.6288L42.7966 41.5487H38.8387V39.1551C38.8387 36.8627 39.7311 34.7076 41.3524 33.0863C41.6306 32.8072 41.9314 32.5534 42.2448 32.3168L43.96 35.7472L49.3559 31.2501C50.111 32.6763 50.5806 34.4656 50.5806 36.1293V37.0325ZM49.5239 24.0956L49.0424 24.3964L48.8284 22.9007L49.6774 22.0525C50.26 21.47 50.5806 20.6959 50.5806 19.8712C50.5806 18.6934 49.8255 17.6891 48.7742 17.316V15.3551H54.1935V15.6703C54.1935 19.118 52.4476 22.2675 49.5239 24.0956Z" fill="#0771EB"/>
<path d="M25.2904 50.5808H27.0969V52.3873H25.2904V50.5808Z" fill="#0771EB"/>
<path d="M21.6775 50.5808H23.4839V52.3873H21.6775V50.5808Z" fill="#0771EB"/>
<path d="M18.0646 50.5808H19.871V52.3873H18.0646V50.5808Z" fill="#0771EB"/>
<path d="M7.22583 41.5483H16.2581V43.3548H7.22583V41.5483Z" fill="#0771EB"/>
<path d="M7.22583 37.9355H16.2581V39.742H7.22583V37.9355Z" fill="#0771EB"/>
<path d="M7.22583 45.1614H12.6452V46.9678H7.22583V45.1614Z" fill="#0771EB"/>
<path d="M7.22583 48.7744H12.6452V50.5809H7.22583V48.7744Z" fill="#0771EB"/>
<path d="M14.4516 5.25316V14.4516H16.258V5.25316C17.3067 4.87923 18.0645 3.88568 18.0645 2.70968C18.0645 1.21574 16.8488 0 15.3548 0C13.8609 0 12.6451 1.21574 12.6451 2.70968C12.6451 3.88568 13.4029 4.87923 14.4516 5.25316ZM15.3548 1.80645C15.8534 1.80645 16.258 2.212 16.258 2.70968C16.258 3.20736 15.8534 3.6129 15.3548 3.6129C14.8562 3.6129 14.4516 3.20736 14.4516 2.70968C14.4516 2.212 14.8562 1.80645 15.3548 1.80645Z" fill="#0771EB"/>
<path d="M2.70968 12.6449C3.88568 12.6449 4.87923 11.8871 5.25316 10.8385H10.8387V14.4514H12.6452V9.03204H5.25316C4.87923 7.98339 3.88568 7.22559 2.70968 7.22559C1.21574 7.22559 0 8.44133 0 9.93526C0 11.4292 1.21574 12.6449 2.70968 12.6449ZM2.70968 9.03204C3.20826 9.03204 3.6129 9.43759 3.6129 9.93526C3.6129 10.4329 3.20826 10.8385 2.70968 10.8385C2.2111 10.8385 1.80645 10.4329 1.80645 9.93526C1.80645 9.43759 2.2111 9.03204 2.70968 9.03204Z" fill="#0771EB"/>
<path d="M18.0646 5.41949V14.4517H19.871V7.22594H21.6775V12.6453H27.0968V10.8388H23.4839V7.22594H29.0695C29.4434 8.27459 30.437 9.03239 31.613 9.03239C33.1069 9.03239 34.3226 7.81665 34.3226 6.32271C34.3226 4.82878 33.1069 3.61304 31.613 3.61304C30.437 3.61304 29.4434 4.37084 29.0695 5.41949H23.4839V3.61304H21.6775V5.41949H18.0646ZM31.613 5.41949C32.1115 5.41949 32.5162 5.82504 32.5162 6.32271C32.5162 6.82039 32.1115 7.22594 31.613 7.22594C31.1144 7.22594 30.7097 6.82039 30.7097 6.32271C30.7097 5.82504 31.1144 5.41949 31.613 5.41949Z" fill="#0771EB"/>
<path d="M12.6452 5.41949H9.03228V3.61304H7.22583V7.22594H12.6452V5.41949Z" fill="#0771EB"/>
<path d="M7.22583 0H9.03228V1.80645H7.22583V0Z" fill="#0771EB"/>
<path d="M19.8709 28.0003C19.8709 25.5101 17.8449 23.4841 15.3548 23.4841C12.8646 23.4841 10.8386 25.5101 10.8386 28.0003C10.8386 30.4905 12.8646 32.5164 15.3548 32.5164C17.8449 32.5164 19.8709 30.4905 19.8709 28.0003ZM15.3548 30.7099C13.8608 30.7099 12.6451 29.4942 12.6451 28.0003C12.6451 26.5063 13.8608 25.2906 15.3548 25.2906C16.8487 25.2906 18.0644 26.5063 18.0644 28.0003C18.0644 29.4942 16.8487 30.7099 15.3548 30.7099Z" fill="#0771EB"/>
<path d="M21.6775 0H23.4839V1.80645H21.6775V0Z" fill="#0771EB"/>
<path d="M28.9031 10.8386H30.7095V12.6451H28.9031V10.8386Z" fill="#0771EB"/>
</svg>
