<svg width="54" height="59" viewBox="0 0 54 59" fill="none" xmlns="http://www.w3.org/2000/svg">
<path d="M39.1797 45.6328C38.5436 45.6328 38.0273 46.1491 38.0273 46.7852C38.0273 47.4212 38.5436 47.9375 39.1797 47.9375C39.8158 47.9375 40.332 47.4212 40.332 46.7852C40.332 46.1491 39.8158 45.6328 39.1797 45.6328Z" fill="#0771EB"/>
<path d="M42.017 41.9065L36.5399 40.0812L34.5737 36.1486C36.345 34.3456 37.5749 31.96 37.9897 29.4718L38.2349 28.002H40.332C42.2382 28.002 43.7891 26.4511 43.7891 24.5449V17.2852C43.7891 7.75412 36.0349 0 26.5039 0C16.9484 0 9.21875 7.73188 9.21875 17.2852V24.5449C9.21875 26.0471 10.1822 27.3281 11.5234 27.8037V29.1543C11.5234 31.0605 13.0743 32.6113 14.9805 32.6113H15.9925C16.492 33.6965 17.1386 34.7016 17.9254 35.6044C18.0886 35.792 18.2588 35.9739 18.4331 36.1508L16.4679 40.0812L10.9907 41.9066C4.62228 44.0301 0 50.7344 0 57.8477C0 58.4841 0.515904 59 1.15234 59H51.8555C52.4918 59 53.0078 58.4841 53.0078 57.8477C53.0078 50.7344 48.3856 44.0301 42.017 41.9065ZM41.4844 24.5449C41.4844 25.1803 40.9674 25.6973 40.332 25.6973H38.5733C38.8662 23.4283 39.0615 21.0138 39.1399 18.6357C39.1422 18.5686 39.1441 18.5034 39.1462 18.4375H41.4844V24.5449ZM12.6758 25.6973C12.0404 25.6973 11.5234 25.1803 11.5234 24.5449V18.4375H13.8625C13.8663 18.5577 13.8703 18.6785 13.8748 18.8C13.8749 18.8042 13.8751 18.8082 13.8753 18.8124C13.8753 18.8127 13.8753 18.813 13.8753 18.8134C13.9559 21.1264 14.1486 23.4782 14.4348 25.6971H12.6758V25.6973ZM14.9805 30.3066C14.3451 30.3066 13.8281 29.7897 13.8281 29.1543V28.002H14.7728L15.018 29.4722C15.0648 29.7517 15.1223 30.0301 15.1888 30.3066H14.9805ZM13.8301 16.1328H11.5672C12.1509 8.40969 18.5962 2.30469 26.5039 2.30469C34.3765 2.30469 40.8501 8.40888 41.4405 16.1328H39.1778C39.0949 9.76876 33.9124 4.60938 27.5354 4.60938H25.4727C19.0957 4.60938 13.9129 9.76876 13.8301 16.1328ZM25.4726 6.91406H27.5353C32.6988 6.91406 36.878 11.1375 36.875 16.2953C36.875 16.6579 36.8721 16.9737 36.866 17.261C36.866 17.2646 36.8659 17.2684 36.8659 17.2722L35.4245 17.0663C31.5089 16.5072 27.8117 14.6586 25.014 11.861C24.7979 11.6449 24.5048 11.5234 24.1992 11.5234C21.1045 11.5234 18.142 12.9334 16.1837 15.3156C16.6663 10.6233 20.6331 6.91406 25.4726 6.91406ZM17.5779 30.3066C17.001 28.3876 16.3409 22.7412 16.195 19.1228L17.746 17.0548C19.1704 15.1562 21.3865 13.9765 23.7438 13.8411C26.8456 16.793 30.8583 18.7423 35.0987 19.3477L36.7951 19.5902C36.6818 21.9969 36.45 24.4119 36.118 26.6331C36.1179 26.6338 36.1178 26.6346 36.1177 26.6354C36.0121 27.3495 35.9289 27.809 35.7164 29.0926C35.1062 32.7531 32.3749 36.0632 28.7693 36.9647C27.2854 37.3351 25.7222 37.335 24.2391 36.9647C21.9878 36.4018 19.9234 34.8441 18.5912 32.6113H20.9404C21.4161 33.9525 22.6969 34.916 24.1992 34.916H26.5039C28.4139 34.916 29.9609 33.3691 29.9609 31.459C29.9609 29.5528 28.4101 28.002 26.5039 28.002H24.1992C22.6635 28.002 21.4016 28.9939 20.9384 30.3066H17.5779ZM24.1023 39.2968C24.8927 39.4633 25.6985 39.5484 26.5039 39.5484C27.1344 39.5484 27.7649 39.4957 28.3883 39.3933L26.3521 41.5467L24.1023 39.2968ZM24.7679 43.222L21.1129 47.0872C20.1067 45.1612 19.2421 43.1567 18.5329 41.1046L19.9055 38.3594L24.7679 43.222ZM32.907 37.969L34.4747 41.1044C33.7644 43.16 32.8995 45.1652 31.8943 47.0889L27.9824 43.1769L32.907 37.969ZM23.0469 31.459C23.0469 30.8228 23.5629 30.3066 24.1992 30.3066H26.5039C27.1393 30.3066 27.6562 30.8236 27.6562 31.459C27.6562 32.0953 27.1401 32.6113 26.5039 32.6113H24.1992C23.5638 32.6113 23.0469 32.0944 23.0469 31.459ZM2.35078 56.6953C2.80746 50.9867 6.60662 45.7979 11.7196 44.0929L16.5702 42.4764C17.4589 44.9338 18.5599 47.3223 19.8502 49.591C19.8523 49.5949 19.8544 49.5988 19.8566 49.6026L19.8567 49.6029C20.7995 51.261 21.8605 52.8813 23.0109 54.4195L24.4285 56.6953H2.35078ZM26.5039 55.6681L24.9411 53.1591C24.9236 53.131 24.9049 53.1037 24.8851 53.0772C23.9519 51.8324 23.0814 50.5306 22.2886 49.1982L26.3982 44.8522L30.7285 49.1825C29.9304 50.5246 29.0569 51.8318 28.1229 53.077C28.0665 53.1522 28.1466 53.0336 26.5039 55.6681ZM28.5793 56.6953L29.9968 54.4197C31.1522 52.8755 32.2209 51.2422 33.1731 49.5646C33.1789 49.5545 33.1843 49.5441 33.19 49.534C33.1907 49.5327 33.1914 49.5315 33.1921 49.5303C34.466 47.2832 35.5555 44.9155 36.4376 42.4764L41.2881 44.0929C46.4012 45.7979 50.2004 50.9867 50.657 56.6953H28.5793Z" fill="#0771EB"/>
<path d="M47.1937 52.032C46.4236 50.4905 45.2956 49.121 43.9316 48.0717C43.4271 47.6835 42.7036 47.7778 42.3156 48.2823C41.9275 48.7868 42.0219 49.5103 42.5263 49.8984C43.6157 50.7365 44.5166 51.8304 45.1318 53.0619C45.4168 53.6322 46.1094 53.8618 46.6777 53.5778C47.247 53.2934 47.478 52.6013 47.1937 52.032Z" fill="#0771EB"/>
</svg>
