<svg width="52" height="63" viewBox="0 0 52 63" fill="none" xmlns="http://www.w3.org/2000/svg">
<path d="M49.2811 51.6584V48.7204C50.9873 47.4911 52 45.507 52 43.3723C52 41.3067 51.0269 39.3393 49.399 38.1111C49.0299 37.831 48.5432 37.7851 48.128 37.9911C47.7086 38.1992 47.4481 38.6204 47.4481 39.0904V42.1564C47.4481 42.1916 47.4262 42.2065 47.4175 42.2065H44.8917C44.8813 42.2065 44.8611 42.1888 44.8611 42.1564V39.0904C44.8611 38.6212 44.6013 38.2002 44.1832 37.9918C43.7688 37.7854 43.2821 37.8305 42.912 38.1097C41.4238 39.2337 40.4858 40.9721 40.3336 42.8374L30.1826 39.4217C29.5884 39.2219 29.189 38.6664 29.189 38.0395V38.0387C32.7756 36.0173 35.2851 32.3006 35.6209 27.9831C37.3142 27.9529 38.7389 26.494 38.7389 24.7943C38.7389 23.8596 38.3232 22.9881 37.6436 22.3925C37.89 21.9012 38.0296 21.3477 38.0296 20.7617C38.0296 19.0652 36.8662 17.6354 35.2953 17.2277V13.1951C35.2953 8.76002 32.3087 4.91697 28.0929 3.781C28.0288 1.92455 26.4995 0.433838 24.6278 0.433838H21.347C19.4752 0.433838 17.946 1.92455 17.8818 3.781C13.666 4.91697 10.6794 8.76014 10.6794 13.1951V17.2277C9.1085 17.6352 7.94516 19.0651 7.94516 20.7617C7.94516 21.3477 8.08471 21.9012 8.33107 22.3925C7.65152 22.9881 7.23579 23.8596 7.23579 24.7943C7.23579 26.4963 8.64402 27.9545 10.3538 27.9831C10.6896 32.3006 13.1991 36.0173 16.7857 38.0387V38.0395C16.7857 38.6664 16.3863 39.2219 15.792 39.4218L5.47832 42.8923C2.13763 44.0227 0.0614663 47.0307 0 50.5156V62.0834C0 62.5896 0.410346 62.9999 0.916496 62.9999H0.916862C1.42301 62.9999 1.83336 62.5896 1.83336 62.0834V50.516C1.87454 48.4113 2.90896 46.4263 4.70358 45.2815L7.34003 48.2233C8.22243 49.2083 8.70842 50.4788 8.70842 51.801V62.0834C8.70842 62.5896 9.11876 62.9999 9.62491 62.9999C10.1311 62.9999 10.5414 62.5896 10.5414 62.0834V59.2746H22.0708V62.0834C22.0708 62.5896 22.4811 62.9999 22.9873 62.9999C23.4934 62.9999 23.9038 62.5896 23.9038 62.0834V59.2746H35.4333V62.0834C35.4333 62.5896 35.8437 62.9999 36.3498 62.9999C36.856 62.9999 37.2663 62.5896 37.2663 62.0834V51.8016C37.2663 50.4784 37.7522 49.2075 38.6343 48.2231L40.78 45.8292C41.2359 46.9774 42.0067 47.9855 43.028 48.7206V51.356C41.6076 51.1997 40.3328 52.2475 40.3326 53.6878V60.6682C40.3326 61.9539 41.3787 63 42.6645 63H47.706C50.0608 63 51.9765 61.0843 51.9765 58.7295V55.6267C51.9767 53.828 50.8583 52.2866 49.2811 51.6584ZM36.9059 24.7943C36.9059 25.4879 36.351 26.094 35.6595 26.1465V24.1799C35.9374 24.0754 36.1992 23.938 36.4405 23.7725C36.7292 24.0258 36.9059 24.3965 36.9059 24.7943ZM10.3152 26.1465C9.62186 26.0938 9.06878 25.4914 9.06878 24.7943C9.06878 24.3965 9.24548 24.0258 9.53424 23.7723C9.77534 23.9379 10.0372 24.0753 10.3152 24.1797V26.1465ZM9.77815 20.7617C9.77815 19.7609 10.5914 18.9466 11.5916 18.9444C11.6031 18.9444 23.754 18.9441 23.7667 18.9441C24.2728 18.9441 24.6832 18.5338 24.6832 18.0276C24.6832 17.5215 24.2728 17.1111 23.7667 17.1111H12.5124V13.1951C12.5124 9.76437 14.7122 6.76988 17.8787 5.69611V11.1926C17.8787 11.6988 18.2891 12.1091 18.7952 12.1091C19.3014 12.1091 19.7117 11.6988 19.7117 11.1926V3.9021C19.7117 3.00039 20.4453 2.26683 21.347 2.26683H24.6278C25.5295 2.26683 26.2631 3.00039 26.2631 3.9021V11.1928C26.2631 11.6989 26.6734 12.1093 27.1796 12.1093C27.6857 12.1093 28.0961 11.6989 28.0961 11.1928V5.69623C31.2626 6.77 33.4625 9.76449 33.4625 13.1952V17.1112H28.0439C27.5378 17.1112 27.1274 17.5216 27.1274 18.0277C27.1274 18.5339 27.5378 18.9442 28.0439 18.9442C28.0522 18.9442 34.3714 18.9446 34.379 18.9446C35.3806 18.9446 36.1967 19.7594 36.1967 20.7617C36.1967 21.7639 35.3814 22.5792 34.3791 22.5792H11.5957C10.5936 22.5792 9.77815 21.7639 9.77815 20.7617ZM12.1482 26.9914V24.4122H33.8264V26.9914C33.8264 32.9681 28.9639 37.8305 22.9873 37.8305C17.0106 37.8305 12.1482 32.9681 12.1482 26.9914ZM18.5169 38.8489C19.9077 39.3751 21.4145 39.6635 22.9873 39.6635C24.5601 39.6635 26.0668 39.3751 27.4577 38.8489C27.7372 39.9525 28.5729 40.8463 29.6924 41.1908C27.8169 42.7382 25.4418 43.6052 22.9872 43.6052C20.5326 43.6052 18.1575 42.7382 16.282 41.1908C17.3946 40.8353 18.2398 39.9569 18.5169 38.8489ZM22.9708 53.3923C21.7514 52.2729 20.6401 51.0336 19.6629 49.7023C19.3632 49.2943 18.7897 49.2063 18.3817 49.5058C17.9737 49.8053 17.8857 50.3789 18.1852 50.787C19.3227 52.3366 20.6301 53.7691 22.0708 55.0477V57.4416H10.5414V51.801C10.5414 50.0268 9.88935 48.3218 8.70512 47.0001L6.46068 44.4956L13.9111 41.9886C14.3952 43.7226 15.0482 45.4082 15.862 47.0105C16.0938 47.4669 16.6506 47.6379 17.0941 47.4127C17.5454 47.1835 17.7255 46.6318 17.4963 46.1805C17.0517 45.3051 16.6583 44.403 16.3177 43.4809C18.2922 44.7449 20.608 45.4382 22.9873 45.4382C25.3266 45.4382 27.604 44.7674 29.5564 43.5436C28.9269 45.1404 28.1516 46.6763 27.2374 48.1343C26.0351 50.0519 24.6012 51.8187 22.9708 53.3923ZM37.2694 46.9996C36.0855 48.321 35.4334 50.0263 35.4334 51.8015V57.4414H23.9039V55.0327C25.782 53.2759 27.4263 51.2835 28.7904 49.1079C30.1846 46.8845 31.2752 44.491 32.0409 41.9809L39.5138 44.4954L37.2694 46.9996ZM42.1422 43.3723C42.1422 42.3656 42.4607 41.3918 43.0281 40.5926V42.1564C43.0281 43.1947 43.8641 44.0395 44.8917 44.0395H47.4175C48.4451 44.0395 49.2811 43.1947 49.2811 42.1564V40.5823C49.8536 41.3786 50.167 42.3453 50.167 43.3723C50.167 44.964 49.3915 46.4379 48.0899 47.3167C47.688 47.5901 47.4481 48.0428 47.4481 48.5279V51.3562H44.8611V48.5279C44.8611 48.0428 44.6212 47.5901 44.2168 47.3149C42.9177 46.4379 42.1422 44.964 42.1422 43.3723ZM50.1437 58.7294C50.1437 60.0735 49.0502 61.1669 47.7062 61.1669H42.6646C42.3896 61.1669 42.1658 60.9432 42.1658 60.6681V53.6877C42.1658 53.4128 42.3895 53.1889 42.6646 53.1889H47.7062C49.0502 53.1889 50.1437 54.2823 50.1437 55.6264V58.7294ZM25.1758 34.5927C25.5884 34.2996 25.6852 33.7274 25.3921 33.3148C25.0989 32.9022 24.5268 32.8052 24.1141 33.0985C23.9354 33.2253 23.5607 33.4409 23.0572 33.459C22.4874 33.4795 22.0624 33.2414 21.8596 33.0977C21.4466 32.8052 20.8746 32.9026 20.5819 33.3157C20.2893 33.7288 20.3869 34.3008 20.7999 34.5935C21.1756 34.8596 21.9476 35.2933 22.9882 35.2933C23.8998 35.2933 24.7472 34.8971 25.1758 34.5927ZM17.6256 25.4441C17.1194 25.4441 16.7091 25.8545 16.7091 26.3606V28.2575C16.7091 28.7637 17.1194 29.174 17.6256 29.174C18.1317 29.174 18.542 28.7637 18.542 28.2575V26.3606C18.542 25.8545 18.1317 25.4441 17.6256 25.4441ZM28.3493 29.1742C28.8554 29.1742 29.2658 28.7638 29.2658 28.2577V26.3608C29.2658 25.8546 28.8554 25.4443 28.3493 25.4443C27.8431 25.4443 27.4328 25.8546 27.4328 26.3608V28.2577C27.4328 28.7638 27.8431 29.1742 28.3493 29.1742Z" fill="#0771EB"/>
</svg>
