<svg width="82" height="82" viewBox="0 0 82 82" fill="none" xmlns="http://www.w3.org/2000/svg">
<path d="M39.7188 15.375H46.125V17.9375H39.7188V15.375Z" fill="#0771EB"/>
<path d="M66.625 38.4375V51.25H41V47.2781C40.9991 45.5457 40.4965 43.8506 39.5529 42.3977C38.6093 40.9448 37.2651 39.7963 35.6828 39.0909L29.4688 36.3234V34.4913C30.6429 33.8074 31.6706 32.8986 32.4929 31.8169C33.3152 30.7352 33.9159 29.5018 34.2606 28.1875H34.5938C35.6132 28.1875 36.5909 27.7825 37.3117 27.0617C38.0325 26.3408 38.4375 25.3632 38.4375 24.3438C38.4375 23.3243 38.0325 22.3467 37.3117 21.6258C36.5909 20.905 35.6132 20.5 34.5938 20.5V20.2694C35.348 20.0062 36.0009 19.5134 36.4606 18.86C36.9203 18.2067 37.1637 17.4257 37.1566 16.6269C37.1496 15.8281 36.8924 15.0515 36.4212 14.4064C35.95 13.7613 35.2885 13.2801 34.5297 13.0303C34.2952 11.0358 33.392 9.17962 31.9672 7.76437C30.9212 6.70427 29.6193 5.93199 28.1875 5.52219V5.125C28.1855 4.44601 27.9148 3.7954 27.4347 3.31528C26.9546 2.83516 26.304 2.56453 25.625 2.5625H23.0625C22.3835 2.56453 21.7329 2.83516 21.2528 3.31528C20.7727 3.7954 20.502 4.44601 20.5 5.125V5.50938C18.8217 6.00275 17.3256 6.97883 16.1979 8.31612C15.0702 9.6534 14.3608 11.2928 14.1578 13.0303C13.399 13.2801 12.7375 13.7613 12.2663 14.4064C11.7951 15.0515 11.5379 15.8281 11.5309 16.6269C11.5238 17.4257 11.7672 18.2067 12.2269 18.86C12.6866 19.5134 13.3395 20.0062 14.0938 20.2694V20.5C13.0743 20.5 12.0967 20.905 11.3758 21.6258C10.655 22.3467 10.25 23.3243 10.25 24.3438C10.25 25.3632 10.655 26.3408 11.3758 27.0617C12.0967 27.7825 13.0743 28.1875 14.0938 28.1875H14.4269C14.7716 29.5018 15.3723 30.7352 16.1946 31.8169C17.0169 32.8986 18.0446 33.8074 19.2188 34.4913V36.3234L13.0047 39.0909C11.4224 39.7963 10.0782 40.9448 9.13458 42.3977C8.19099 43.8506 7.68838 45.5457 7.6875 47.2781V51.25H5.125V21.7812C5.12804 20.7628 5.53398 19.7869 6.25417 19.0667C6.97435 18.3465 7.95026 17.9405 8.96875 17.9375V15.375C7.26971 15.375 5.64025 16.0499 4.43885 17.2513C3.23744 18.4528 2.5625 20.0822 2.5625 21.7812V57.6562C2.5625 59.3553 3.23744 60.9847 4.43885 62.1862C5.64025 63.3876 7.26971 64.0625 8.96875 64.0625H25.4584L24.4975 71.75H23.0625C22.0431 71.75 21.0654 72.155 20.3446 72.8758C19.6237 73.5967 19.2188 74.5743 19.2188 75.5938C19.2188 76.6132 19.6237 77.5908 20.3446 78.3117C21.0654 79.0325 22.0431 79.4375 23.0625 79.4375H48.6875C49.7069 79.4375 50.6846 79.0325 51.4054 78.3117C52.1263 77.5908 52.5312 76.6132 52.5312 75.5938C52.5312 74.5743 52.1263 73.5967 51.4054 72.8758C50.6846 72.155 49.7069 71.75 48.6875 71.75H47.2525L46.2916 64.0625H62.7812C64.4803 64.0625 66.1097 63.3876 67.3111 62.1862C68.5126 60.9847 69.1875 59.3553 69.1875 57.6562V38.4375H66.625ZM14.0938 25.625C13.7539 25.625 13.4281 25.49 13.1878 25.2497C12.9475 25.0095 12.8125 24.6836 12.8125 24.3438C12.8125 24.0039 12.9475 23.678 13.1878 23.4378C13.4281 23.1975 13.7539 23.0625 14.0938 23.0625V25.625ZM30.75 43.5625C30.9646 43.5636 31.1761 43.5107 31.365 43.4088C31.52 43.3221 31.6556 43.2046 31.7636 43.0636C31.8716 42.9226 31.9496 42.761 31.9928 42.5888L32.5181 40.4875L34.6322 41.4228C35.7649 41.9261 36.7274 42.7471 37.4028 43.7864C38.0782 44.8257 38.4377 46.0386 38.4375 47.2781V51.25H29.2125L27.265 42.4734L30.34 43.4984C30.4731 43.5385 30.611 43.56 30.75 43.5625ZM30.1478 39.4241L29.8403 40.6284L27.8159 39.9494L27.3419 39.0141L28.2259 38.5784L30.1478 39.4241ZM35.875 24.3438C35.875 24.6836 35.74 25.0095 35.4997 25.2497C35.2594 25.49 34.9336 25.625 34.5938 25.625V23.0625C34.9336 23.0625 35.2594 23.1975 35.4997 23.4378C35.74 23.678 35.875 24.0039 35.875 24.3438ZM28.1875 8.23844C28.9212 8.55817 29.59 9.00982 30.1606 9.57094C31.0514 10.4538 31.6582 11.5825 31.9031 12.8125H28.1875V8.23844ZM23.0625 5.125H25.625V12.8125H23.0625V5.125ZM20.5 8.23844V12.8125H16.7844C16.9885 11.8068 17.433 10.8654 18.0801 10.0689C18.7271 9.27231 19.5574 8.64428 20.5 8.23844ZM14.0938 16.6562C14.0938 16.3164 14.2287 15.9906 14.469 15.7503C14.7093 15.51 15.0352 15.375 15.375 15.375H33.3125C33.6523 15.375 33.9782 15.51 34.2185 15.7503C34.4588 15.9906 34.5938 16.3164 34.5938 16.6562C34.5938 16.9961 34.4588 17.3219 34.2185 17.5622C33.9782 17.8025 33.6523 17.9375 33.3125 17.9375H15.375C15.0352 17.9375 14.7093 17.8025 14.469 17.5622C14.2287 17.3219 14.0938 16.9961 14.0938 16.6562ZM16.6562 25.625V20.5H32.0312V25.625C32.0312 27.6639 31.2213 29.6192 29.7796 31.0609C28.3379 32.5026 26.3826 33.3125 24.3438 33.3125C22.3049 33.3125 20.3496 32.5026 18.9079 31.0609C17.4662 29.6192 16.6562 27.6639 16.6562 25.625ZM23.5878 44.5619C23.7976 44.744 24.066 44.8442 24.3438 44.8442C24.6215 44.8442 24.8899 44.744 25.0997 44.5619L26.5859 51.25H22.1016L23.5878 44.5619ZM23.3444 40.7437L23.8569 39.7188H24.8306L25.3431 40.7437L24.3438 41.7559L23.3444 40.7437ZM25.3175 37.1562H23.37L21.7812 36.3619V35.5419C23.4607 35.9861 25.2268 35.9861 26.9062 35.5419V36.3619L25.3175 37.1562ZM20.4616 38.5784L21.3456 39.0141L20.8716 39.9494L18.8472 40.6284L18.5397 39.4241L20.4616 38.5784ZM10.25 47.2781C10.2498 46.0386 10.6093 44.8257 11.2847 43.7864C11.9601 42.7471 12.9226 41.9261 14.0553 41.4228L16.1694 40.4875L16.6947 42.5888C16.7379 42.761 16.8159 42.9226 16.9239 43.0636C17.0318 43.2046 17.1675 43.3221 17.3225 43.4088C17.5114 43.5107 17.7229 43.5636 17.9375 43.5625C18.0765 43.56 18.2144 43.5385 18.3475 43.4984L21.4225 42.4734L19.475 51.25H10.25V47.2781ZM48.6875 74.3125C49.0273 74.3125 49.3532 74.4475 49.5935 74.6878C49.8338 74.928 49.9688 75.2539 49.9688 75.5938C49.9688 75.9336 49.8338 76.2595 49.5935 76.4997C49.3532 76.74 49.0273 76.875 48.6875 76.875H23.0625C22.7227 76.875 22.3968 76.74 22.1565 76.4997C21.9162 76.2595 21.7812 75.9336 21.7812 75.5938C21.7812 75.2539 21.9162 74.928 22.1565 74.6878C22.3968 74.4475 22.7227 74.3125 23.0625 74.3125H48.6875ZM27.0728 71.75L28.0337 64.0625H43.7162L44.6772 71.75H27.0728ZM66.625 57.6562C66.622 58.6747 66.216 59.6506 65.4958 60.3708C64.7756 61.091 63.7997 61.497 62.7812 61.5H8.96875C7.95026 61.497 6.97435 61.091 6.25417 60.3708C5.53398 59.6506 5.12804 58.6747 5.125 57.6562V53.8125H66.625V57.6562Z" fill="#0771EB"/>
<path d="M58.9375 56.375H61.5V58.9375H58.9375V56.375Z" fill="#0771EB"/>
<path d="M19.2188 23.0625H21.7812V25.625H19.2188V23.0625Z" fill="#0771EB"/>
<path d="M26.9062 23.0625H29.4688V25.625H26.9062V23.0625Z" fill="#0771EB"/>
<path d="M78.3382 19.2316L74.9019 18.7408C74.6696 18.0183 74.3787 17.316 74.0319 16.6409L76.1139 13.8657C76.2989 13.6189 76.3887 13.3138 76.3668 13.0062C76.345 12.6985 76.2128 12.4092 75.9948 12.1911L72.3714 8.56772C72.1534 8.34999 71.8643 8.2181 71.557 8.19621C71.2496 8.17433 70.9447 8.26392 70.6981 8.44856L67.9216 10.5293C67.2464 10.1832 66.5441 9.89266 65.8217 9.66062L65.3309 6.22431C65.2872 5.91912 65.1348 5.63995 64.9018 5.43802C64.6688 5.2361 64.3708 5.12496 64.0625 5.125H58.9375C58.6292 5.12496 58.3312 5.2361 58.0982 5.43802C57.8652 5.63995 57.7128 5.91912 57.6691 6.22431L57.1783 9.66062C56.4558 9.89242 55.7535 10.183 55.0784 10.5293L52.3019 8.44856C52.0553 8.26392 51.7504 8.17433 51.443 8.19621C51.1357 8.2181 50.8466 8.34999 50.6286 8.56772L47.0052 12.1911C46.7872 12.4092 46.655 12.6985 46.6332 13.0062C46.6113 13.3138 46.7011 13.6189 46.8861 13.8657L48.9681 16.6409C48.6213 17.316 48.3304 18.0183 48.0981 18.7408L44.6618 19.2316C44.3566 19.2753 44.0775 19.4277 43.8755 19.6607C43.6736 19.8937 43.5625 20.1917 43.5625 20.5V25.625C43.5625 25.9333 43.6736 26.2313 43.8755 26.4643C44.0775 26.6973 44.3566 26.8497 44.6618 26.8934L48.0981 27.3842C48.3304 28.1067 48.6213 28.809 48.9681 29.4841L46.8861 32.2593C46.7011 32.5061 46.6113 32.8112 46.6332 33.1188C46.655 33.4265 46.7872 33.7158 47.0052 33.9339L50.6286 37.5573C50.8466 37.775 51.1357 37.9069 51.443 37.9288C51.7504 37.9507 52.0553 37.8611 52.3019 37.6764L55.0784 35.5957C55.7535 35.942 56.4558 36.2326 57.1783 36.4644L57.6691 39.9007C57.7128 40.2059 57.8652 40.4851 58.0982 40.687C58.3312 40.8889 58.6292 41 58.9375 41H64.0625C64.3708 41 64.6688 40.8889 64.9018 40.687C65.1348 40.4851 65.2872 40.2059 65.3309 39.9007L65.8217 36.4644C66.5441 36.2323 67.2464 35.9418 67.9216 35.5957L70.6981 37.6764C70.9447 37.8611 71.2496 37.9507 71.557 37.9288C71.8643 37.9069 72.1534 37.775 72.3714 37.5573L75.9948 33.9339C76.2128 33.7158 76.345 33.4265 76.3668 33.1188C76.3887 32.8112 76.2989 32.5061 76.1139 32.2593L74.0319 29.4841C74.3787 28.809 74.6696 28.1067 74.9019 27.3842L78.3382 26.8934C78.6434 26.8497 78.9226 26.6973 79.1245 26.4643C79.3264 26.2313 79.4375 25.9333 79.4375 25.625V20.5C79.4375 20.1917 79.3264 19.8937 79.1245 19.6607C78.9226 19.4277 78.6434 19.2753 78.3382 19.2316ZM76.875 24.5142L73.7193 24.9652C73.4684 25.0011 73.2339 25.1106 73.0453 25.2798C72.8567 25.449 72.7225 25.6704 72.6597 25.9158C72.3892 26.9772 71.9677 27.9943 71.4079 28.9357C71.2785 29.1541 71.2168 29.4059 71.2307 29.6594C71.2446 29.9128 71.3335 30.1564 71.4861 30.3592L73.3977 32.9089L71.3477 34.9589L68.7967 33.0473C68.5939 32.8952 68.3505 32.8067 68.0973 32.793C67.8441 32.7793 67.5926 32.8411 67.3745 32.9704C66.4338 33.5302 65.4171 33.951 64.3559 34.2196C64.1098 34.2821 63.8877 34.4163 63.718 34.6052C63.5483 34.7941 63.4385 35.0291 63.4027 35.2805L62.9517 38.4375H60.0483L59.5986 35.2818C59.5627 35.0304 59.453 34.7953 59.2833 34.6064C59.1135 34.4176 58.8915 34.2834 58.6454 34.2209C57.5842 33.9522 56.5675 33.5315 55.6268 32.9717C55.4087 32.8424 55.1572 32.7806 54.904 32.7943C54.6508 32.808 54.4074 32.8965 54.2046 33.0486L51.6536 34.9602L49.6036 32.9102L51.5152 30.3605C51.6678 30.1577 51.7566 29.9141 51.7706 29.6606C51.7845 29.4072 51.7228 29.1554 51.5934 28.937C51.0336 27.9956 50.612 26.9785 50.3416 25.9171C50.2788 25.6716 50.1446 25.4503 49.956 25.2811C49.7674 25.1119 49.5328 25.0024 49.282 24.9664L46.125 24.5142V21.6108L49.2807 21.1598C49.5316 21.1239 49.7661 21.0144 49.9547 20.8452C50.1433 20.676 50.2775 20.4546 50.3403 20.2092C50.6108 19.1478 51.0323 18.1307 51.5921 17.1893C51.7215 16.9709 51.7832 16.7191 51.7693 16.4656C51.7554 16.2122 51.6665 15.9686 51.5139 15.7658L49.6023 13.2161L51.6523 11.1661L54.2033 13.0777C54.4061 13.2298 54.6495 13.3183 54.9027 13.332C55.1559 13.3457 55.4074 13.2839 55.6255 13.1546C56.5662 12.5948 57.5829 12.174 58.6441 11.9054C58.8902 11.8429 59.1123 11.7087 59.282 11.5198C59.4517 11.331 59.5615 11.0959 59.5973 10.8445L60.0483 7.6875H62.9517L63.4014 10.8432C63.4373 11.0946 63.547 11.3297 63.7167 11.5186C63.8865 11.7074 64.1085 11.8416 64.3546 11.9041C65.4158 12.1728 66.4325 12.5935 67.3732 13.1533C67.5913 13.2826 67.8428 13.3444 68.096 13.3307C68.3492 13.317 68.5926 13.2285 68.7954 13.0764L71.3464 11.1648L73.3964 13.2148L71.4848 15.7645C71.3322 15.9673 71.2434 16.2109 71.2294 16.4644C71.2155 16.7178 71.2772 16.9696 71.4066 17.188C71.9664 18.1294 72.388 19.1465 72.6584 20.2079C72.7212 20.4534 72.8554 20.6747 73.044 20.8439C73.2326 21.0131 73.4672 21.1226 73.718 21.1586L76.875 21.6108V24.5142Z" fill="#0771EB"/>
<path d="M61.5 15.375C59.9796 15.375 58.4933 15.8259 57.2291 16.6706C55.9649 17.5153 54.9795 18.7159 54.3977 20.1206C53.8158 21.5253 53.6636 23.071 53.9602 24.5623C54.2568 26.0535 54.989 27.4233 56.0641 28.4984C57.1392 29.5735 58.509 30.3057 60.0002 30.6023C61.4915 30.8989 63.0372 30.7467 64.4419 30.1648C65.8466 29.583 67.0472 28.5976 67.8919 27.3334C68.7366 26.0692 69.1875 24.5829 69.1875 23.0625C69.1855 21.0243 68.3749 19.0701 66.9336 17.6289C65.4924 16.1876 63.5382 15.377 61.5 15.375ZM61.5 28.1875C60.4864 28.1875 59.4955 27.8869 58.6527 27.3238C57.8099 26.7606 57.153 25.9602 56.7651 25.0238C56.3772 24.0873 56.2757 23.0568 56.4735 22.0627C56.6712 21.0685 57.1593 20.1553 57.8761 19.4386C58.5928 18.7218 59.506 18.2337 60.5002 18.036C61.4943 17.8382 62.5248 17.9397 63.4613 18.3276C64.3977 18.7155 65.1981 19.3724 65.7613 20.2152C66.3244 21.058 66.625 22.0489 66.625 23.0625C66.625 24.4217 66.085 25.7253 65.1239 26.6864C64.1628 27.6475 62.8592 28.1875 61.5 28.1875Z" fill="#0771EB"/>
<path d="M46.125 41H56.375V43.5625H46.125V41Z" fill="#0771EB"/>
<path d="M46.125 46.125H56.375V48.6875H46.125V46.125Z" fill="#0771EB"/>
</svg>
