<svg width="17" height="17" viewBox="0 0 17 17" fill="none" xmlns="http://www.w3.org/2000/svg">
<path d="M8.5 0C6.24568 0 4.08352 0.895472 2.48961 2.48961C0.895472 4.08361 0 6.24558 0 8.5C0 10.7544 0.895472 12.9165 2.48961 14.5104C4.08361 16.1045 6.24558 17 8.5 17C9.99201 17 11.4578 16.6073 12.75 15.8612C14.0422 15.1151 15.1152 14.0422 15.8612 12.75C16.6073 11.4578 17 9.99201 17 8.5C17 6.24568 16.1045 4.08352 14.5104 2.48961C12.9164 0.895472 10.7544 0 8.5 0ZM12.6784 9.24615L9.45737 12.4672C9.2016 12.723 8.82888 12.8228 8.47949 12.7292C8.13022 12.6356 7.85736 12.3627 7.76376 12.0134C7.67014 11.6641 7.77 11.2914 8.02576 11.0356L9.57369 9.50202H5.03546C4.67485 9.50202 4.34169 9.30966 4.16133 8.99735C3.98109 8.68517 3.98109 8.30045 4.16133 7.98815C4.3417 7.67585 4.67485 7.48349 5.03546 7.48349H9.55196L8.02912 5.95889C7.77336 5.70313 7.67349 5.3304 7.76712 4.98113C7.86073 4.63174 8.13361 4.35888 8.48284 4.26528C8.83224 4.17166 9.20496 4.27152 9.4606 4.52729L12.6816 7.74834C12.8799 7.94693 12.9856 8.21955 12.9734 8.49992V8.53212C12.974 8.79999 12.8676 9.05688 12.6782 9.24612L12.6784 9.24615Z" fill="white"/>
</svg>
