<svg width="74" height="74" viewBox="0 0 74 74" fill="none" xmlns="http://www.w3.org/2000/svg">
<mask id="mask0_3_1176" style="mask-type:luminance" maskUnits="userSpaceOnUse" x="0" y="0" width="74" height="74">
<path d="M73 73V1H1V73H73Z" fill="white" stroke="white" stroke-width="2"/>
</mask>
<g mask="url(#mask0_3_1176)">
<path d="M51.455 30.0534C50.6327 29.4978 49.6414 29.1735 48.5743 29.1735C45.7289 29.1735 43.4224 31.4802 43.4224 34.3256C43.4224 37.171 45.7289 39.4775 48.5743 39.4775C49.73 39.4775 50.6806 39.0971 51.4019 38.4547C51.5512 38.3217 51.6907 38.1775 51.8202 38.0233" stroke="#0771EB" stroke-width="3" stroke-miterlimit="10" stroke-linecap="round" stroke-linejoin="round"/>
<path d="M56.2439 29.1129L59.8304 39.5498L63.4932 29.1006" stroke="#0771EB" stroke-width="3" stroke-miterlimit="10" stroke-linecap="round" stroke-linejoin="round"/>
<path d="M10.0699 62.2924V69.4282" stroke="#0771EB" stroke-width="3" stroke-miterlimit="10" stroke-linecap="round" stroke-linejoin="round"/>
<path d="M46.146 62.2924V69.4282" stroke="#0771EB" stroke-width="3" stroke-miterlimit="10" stroke-linecap="round" stroke-linejoin="round"/>
<path d="M28.108 47.015L24.7966 49.8791C23.979 50.5863 22.7333 50.4521 22.0848 49.5874L17.0125 42.8231L18.8429 41.2284C19.7387 40.4478 21.0794 40.4701 21.9491 41.2798L28.108 47.015Z" stroke="#0771EB" stroke-width="3" stroke-miterlimit="10" stroke-linecap="round" stroke-linejoin="round"/>
<path d="M28.1125 47.015L31.4239 49.8791C32.2415 50.5863 33.4872 50.4521 34.1357 49.5874L39.2081 42.8231L37.3777 41.2284C36.4818 40.4478 35.1411 40.4701 34.2716 41.2798L28.1125 47.015Z" stroke="#0771EB" stroke-width="3" stroke-miterlimit="10" stroke-linecap="round" stroke-linejoin="round"/>
<path d="M19.1393 64.1134C21.3116 66.1083 23.6998 67.982 25.6004 69.394" stroke="#0771EB" stroke-width="3" stroke-miterlimit="10" stroke-linecap="round" stroke-linejoin="round"/>
<path d="M28.5917 69.394C25.2586 63.8586 16.5436 50.9933 17.0125 42.8226L16.2031 42.973C14.4164 43.3051 12.8589 44.4159 12.004 46.0194C11.628 46.725 11.3521 47.5116 11.3521 48.3001C11.3521 49.4879 13.1898 50.9586 14.3044 51.7414C14.687 52.0101 14.7464 52.5994 14.4231 52.949C13.7923 53.631 13.0075 54.7913 13.2451 56.1743C13.4657 57.4587 14.357 58.9384 15.614 60.4658" stroke="#0771EB" stroke-width="3" stroke-miterlimit="10" stroke-linecap="round" stroke-linejoin="round"/>
<path d="M31.5821 69.394C36.0622 66.0655 43.2507 60.1728 43.9375 56.1743C44.175 54.7913 43.3902 53.631 42.7595 52.949C42.4362 52.5994 42.4956 52.0101 42.8781 51.7414C43.9929 50.9586 45.8305 49.4879 45.8305 48.3001C45.8305 47.681 45.6604 47.0631 45.4053 46.4847C44.5771 44.6071 42.7946 43.3249 40.7622 43.0402L39.2081 42.8226C39.6771 50.9933 31.925 63.8586 28.5918 69.394" stroke="#0771EB" stroke-width="3" stroke-miterlimit="10" stroke-linecap="round" stroke-linejoin="round"/>
<path d="M24.4365 50.1222L26.3549 52.3174H29.8705L31.7462 50.1036L28.1127 47.0151L24.4365 50.1222Z" stroke="#0771EB" stroke-width="3" stroke-miterlimit="10" stroke-linecap="round" stroke-linejoin="round"/>
<path d="M32.5719 62.5225L29.8705 52.3168" stroke="#0771EB" stroke-width="3" stroke-miterlimit="10" stroke-linecap="round" stroke-linejoin="round"/>
<path d="M26.3549 52.3171L24.1703 62.1445" stroke="#0771EB" stroke-width="3" stroke-miterlimit="10" stroke-linecap="round" stroke-linejoin="round"/>
<path d="M14.2567 43.6951L6.85541 46.0384C3.41918 47.1263 1.08398 50.3151 1.08398 53.9193V66.3587C1.08398 68.0354 2.4433 69.3945 4.12001 69.3945H52.1005C53.7772 69.3945 55.1365 68.0354 55.1365 66.3587V53.9193C55.1365 50.3151 52.8013 47.1263 49.3652 46.0384L43.594 44.2111" stroke="#0771EB" stroke-width="3" stroke-miterlimit="10" stroke-linecap="round" stroke-linejoin="round"/>
<path d="M38.6342 9.17448H38.5183C37.8765 9.17448 37.3562 8.65417 37.3562 8.0126C37.3562 6.11244 35.8158 4.57203 33.9158 4.57203H22.0596C17.6865 4.57203 14.1415 8.11724 14.1415 12.4902V20.1279H16.5187C17.8409 20.1279 18.9127 19.0561 18.9127 17.7339V16.4232C18.9127 14.7011 20.5975 13.4832 22.2328 14.0235L22.2373 14.0251C26.0511 15.285 30.1693 15.2847 33.983 14.0242C35.6182 13.4837 37.3033 14.7014 37.3033 16.4237V17.7339C37.3033 19.0561 38.3752 20.1279 39.6974 20.1279H42.0746V12.6151C42.0746 10.7148 40.5343 9.17448 38.6342 9.17448Z" stroke="#0771EB" stroke-width="3" stroke-miterlimit="10" stroke-linecap="round" stroke-linejoin="round"/>
<path d="M14.1414 20.1281V21.2816V24.0429C14.1414 25.0433 14.9523 25.8542 15.9526 25.8542C16.2683 25.8542 16.5251 26.1015 16.5449 26.4165C16.9269 32.4718 21.9562 37.2656 28.108 37.2656C34.2598 37.2656 39.2891 32.4718 39.6711 26.4165C39.6909 26.1015 39.9477 25.8542 40.2634 25.8542C41.2637 25.8542 42.0746 25.0433 42.0746 24.0429V21.2816V20.1281" stroke="#0771EB" stroke-width="3" stroke-miterlimit="10" stroke-linecap="round" stroke-linejoin="round"/>
<path d="M21.8894 35.4559V41.2293C21.9091 41.2464 21.9299 41.2619 21.9491 41.2798" stroke="#0771EB" stroke-width="3" stroke-miterlimit="10" stroke-linecap="round" stroke-linejoin="round"/>
<path d="M34.2715 41.2798C34.2893 41.2633 34.3083 41.2491 34.3266 41.2332V35.4559" stroke="#0771EB" stroke-width="3" stroke-miterlimit="10" stroke-linecap="round" stroke-linejoin="round"/>
<path d="M63.0237 12.0582V20.0231C63.0237 21.0321 63.8416 21.8501 64.8507 21.8501H72.8155" stroke="#0771EB" stroke-width="3" stroke-miterlimit="10" stroke-linecap="round" stroke-linejoin="round"/>
<path d="M60.2042 61.4277H69.9692C71.5966 61.4277 72.916 60.1083 72.916 58.4807V22.601C72.916 21.8195 72.6056 21.07 72.0529 20.5173L64.3564 12.8207C63.8038 12.268 63.0542 11.9577 62.2726 11.9577H47.1172" stroke="#0771EB" stroke-width="3" stroke-miterlimit="10" stroke-linecap="round" stroke-linejoin="round"/>
</g>
</svg>
