<svg width="77" height="77" viewBox="0 0 77 77" fill="none" xmlns="http://www.w3.org/2000/svg">
<path d="M77 32.2903H74.2093L70.0499 34.4789C69.5817 34.2205 69.0948 34.0016 68.5696 33.87L63.3375 32.5608V31.9659C65.6522 30.3504 67.0645 27.6816 67.0645 24.8387V22.6677C67.0645 17.8431 63.2841 13.8056 58.6378 13.6649C58.4019 13.6589 58.1696 13.6674 57.9362 13.6789L59.2927 10.5031L52.7162 3.92835L48.8394 6.45164C47.3664 5.62206 45.8085 4.97623 44.1906 4.52324L43.2331 0H33.7682L32.8106 4.52445C31.1927 4.97744 29.6336 5.62328 28.1619 6.45285L24.2851 3.92956L17.714 10.5007L19.0475 13.6789C18.9965 13.6765 18.948 13.6674 18.8971 13.6661C16.5187 13.597 14.2786 14.4648 12.577 16.1167C10.873 17.7673 9.93548 19.9825 9.93548 22.3548V24.8387C9.93548 27.6816 11.3466 30.3492 13.6613 31.9647V32.5608L10.2484 33.414L4.06237 29.8065H0V55.5408L12.218 59.6129H14.5976L14.8947 58.5723L18.6399 60.8203C18.7012 62.8566 20.3343 64.4951 22.3688 64.5667C22.4403 66.5927 24.0686 68.2209 26.0946 68.2925C26.1661 70.3185 27.7944 71.9468 29.8204 72.0183C29.8944 74.0916 31.5923 75.7581 33.6826 75.7581C34.4589 75.7581 35.2199 75.5161 35.8597 75.0849L36.9597 76.0564C37.6492 76.6634 38.537 77 39.4587 77H39.6886C41.7552 77 43.4368 75.3293 43.4629 73.2693C45.5071 73.2433 47.1626 71.5878 47.1887 69.5435C49.2341 69.5175 50.8909 67.8595 50.9145 65.8141C52.9787 65.7656 54.6452 64.0791 54.6452 62.0034C54.6452 61.8785 54.6391 61.7554 54.6264 61.6311L77 50.4451V32.2903ZM64.5806 22.6677V24.8387C64.5806 27.043 63.3896 29.1024 61.4722 30.2127L60.8512 30.5717L60.8561 34.5019L67.0609 36.0519L53.4032 43.2403V39.8948C53.4032 38.2253 52.7289 36.6965 51.6246 35.5668L55.8871 34.5019V30.5687L55.2673 30.2103C53.3511 29.1024 52.1613 27.043 52.1613 24.8387V22.3548C52.1613 20.6611 52.8308 19.0772 54.0478 17.8977C55.2637 16.7188 56.8768 16.0833 58.5632 16.1488C61.8809 16.2483 64.5806 19.173 64.5806 22.6677ZM40.3726 42.264L34.7505 40.4672C32.1884 39.6461 29.4153 39.5236 26.7926 40.1046L26.0806 40.2622V39.8948C26.0806 38.1822 27.2419 36.6953 28.9023 36.2793L36.0161 34.5019V30.5687L35.3964 30.2103C33.4801 29.1024 32.2903 27.043 32.2903 24.8387V22.3548C32.2903 20.6611 32.9598 19.0772 34.1769 17.8977C35.3927 16.7188 37.0161 16.0833 38.6922 16.1488C42.0099 16.2483 44.7097 19.173 44.7097 22.6677V24.8387C44.7097 27.043 43.5187 29.1024 41.6012 30.2127L40.9802 30.5717L40.9851 34.5019L48.0977 36.2793C49.7581 36.6953 50.9194 38.1822 50.9194 39.8948V44.5484L50.6125 44.7097H49.8515L42.2161 42.5278C41.6145 42.3574 40.9948 42.2877 40.3726 42.264ZM26.359 18.5878C28.6913 14.0688 33.3855 11.1774 38.5 11.1774C43.566 11.1774 48.2402 14.03 50.5901 18.4877C49.9988 19.6733 49.6774 20.9862 49.6774 22.3548V24.8387C49.6774 27.6816 51.0885 30.3492 53.4032 31.9647V32.5608L48.4355 33.8045L43.4665 32.5608V31.9659C45.7812 30.3504 47.1936 27.6816 47.1936 24.8387V22.6677C47.1936 17.8431 43.4132 13.8056 38.7668 13.6649C36.3897 13.5952 34.1484 14.4636 32.4468 16.1154C30.744 17.7673 29.8065 19.9825 29.8065 22.3548V24.8387C29.8065 27.6816 31.2176 30.3492 33.5323 31.9647V32.5608L28.5645 33.8045L23.5956 32.5608V31.9659C25.9102 30.3504 27.3226 27.6816 27.3226 24.8387V22.6677C27.3226 21.2063 26.9709 19.8188 26.359 18.5878ZM20.6472 11.0768L24.6149 7.10899L28.1073 9.38183L28.7755 8.97189C30.4499 7.94584 32.2594 7.19449 34.1532 6.7415L34.9173 6.55837L35.7814 2.48387H41.2198L42.0815 6.55715L42.8456 6.73968C44.7394 7.19328 46.5489 7.94463 48.2232 8.97068L48.8915 9.38062L52.3838 7.10778L56.3468 11.0719L54.9381 14.3702C53.9793 14.7825 53.0903 15.3629 52.3165 16.113C52.2656 16.1627 52.2219 16.2161 52.1722 16.267C49.2463 11.6159 44.0736 8.69355 38.5 8.69355C32.8864 8.69355 27.6992 11.6431 24.7805 16.3416C23.9994 15.5242 23.0704 14.862 22.0407 14.3993L20.6472 11.0768ZM16.1452 34.5019V30.5687L15.5254 30.2103C13.6091 29.1024 12.4194 27.043 12.4194 24.8387V22.3548C12.4194 20.6611 13.0888 19.0772 14.3059 17.8977C15.5218 16.7188 17.1385 16.0833 18.8213 16.1488C22.139 16.2483 24.8387 19.173 24.8387 22.6677V24.8387C24.8387 27.043 23.6477 29.1024 21.7302 30.2127L21.1093 30.5717L21.1141 34.5019L25.3754 35.5668C24.2711 36.6965 23.5968 38.2253 23.5968 39.8948V40.8147L19.723 41.6758L19.8237 41.3241L19.871 39.0288L13.3211 35.2078L16.1452 34.5019ZM2.48387 32.2903H3.38925L12.3211 37.5L7.81425 55.5269L2.48387 53.7495V32.2903ZM12.6207 57.129L10.1762 56.3146L14.5545 38.8032L17.3871 40.4551V40.8098L12.725 57.129H12.6207ZM21.1129 60.7044C21.1129 60.3382 21.2609 59.9792 21.5204 59.7196L23.7035 57.5365C23.963 57.277 24.322 57.129 24.6883 57.129C25.456 57.129 26.0806 57.7536 26.0806 58.5214C26.0806 58.8876 25.9327 59.2466 25.6731 59.5062L23.49 61.6893C23.2305 61.9488 22.8715 62.0968 22.5052 62.0968C21.7375 62.0968 21.1129 61.4722 21.1129 60.7044ZM24.8387 64.4303C24.8387 64.064 24.9867 63.705 25.2462 63.4454L27.4293 61.2623C27.6889 61.0028 28.0479 60.8548 28.4141 60.8548C29.1818 60.8548 29.8065 61.4794 29.8065 62.2472C29.8065 62.6134 29.6585 62.9724 29.3989 63.232L27.2159 65.4151C26.9563 65.6746 26.5973 65.8226 26.231 65.8226C25.4633 65.8226 24.8387 65.198 24.8387 64.4303ZM28.5645 68.1561C28.5645 67.7898 28.7125 67.4308 28.972 67.1712L31.1551 64.9882C31.4147 64.7286 31.7737 64.5806 32.1399 64.5806C32.9077 64.5806 33.5323 65.2053 33.5323 65.973C33.5323 66.3392 33.3843 66.6982 33.1247 66.9578L30.9417 69.1409C30.6821 69.4004 30.3231 69.5484 29.9568 69.5484C29.1891 69.5484 28.5645 68.9238 28.5645 68.1561ZM33.6826 73.2742C32.9149 73.2742 32.2903 72.6496 32.2903 71.8819C32.2903 71.5156 32.4383 71.1566 32.6978 70.897L34.8809 68.714C35.1405 68.4544 35.4995 68.3064 35.8657 68.3064C36.6335 68.3064 37.2581 68.9311 37.2581 69.6988C37.2581 70.0651 37.1101 70.424 36.8506 70.6836L34.6675 72.8667C34.4079 73.1262 34.0489 73.2742 33.6826 73.2742ZM39.6886 74.5161H39.4587C39.1422 74.5161 38.839 74.4009 38.6031 74.1917L37.6741 73.3724L38.6067 72.4398C38.9397 72.1068 39.198 71.7109 39.389 71.2858L40.5181 72.2257C40.8135 72.4719 40.9839 72.8345 40.9839 73.2208C40.9839 73.9352 40.4029 74.5161 39.6886 74.5161ZM50.826 63.3387H50.6113C50.2996 63.3387 49.9952 63.2283 49.7569 63.0282L43.022 57.4159L41.4308 59.3249L47.971 64.7741C48.2651 65.0203 48.4355 65.3829 48.4355 65.7692C48.4355 66.4836 47.8545 67.0645 47.1402 67.0645H46.8691C46.5677 67.0645 46.273 66.9578 46.0408 66.7637L39.295 61.1429L37.7038 63.0519L44.244 68.5017C44.5393 68.7461 44.7097 69.1087 44.7097 69.495C44.7097 70.2094 44.1287 70.7903 43.4144 70.7903C42.9377 70.7903 42.4732 70.6211 42.1076 70.3173L39.3356 68.0069C38.725 66.7589 37.4703 65.8887 36.001 65.8365C35.9294 63.8105 34.3012 62.1823 32.2752 62.1107C32.2036 60.0847 30.5754 58.4565 28.5494 58.3849C28.4766 56.3116 26.7786 54.6452 24.6883 54.6452C23.6677 54.6452 22.669 55.0587 21.9473 55.7804L19.7642 57.9635C19.6339 58.0938 19.5259 58.2418 19.4162 58.3886L15.6012 56.0993L18.9456 44.3943L27.3299 42.5302C29.5293 42.0384 31.8482 42.1452 33.9931 42.8316L35.8227 43.4168L29.6203 46.518C28.2031 47.2281 27.3226 48.6538 27.3226 50.239V50.4846C27.3226 52.7786 29.1891 54.6452 31.4832 54.6452C32.237 54.6452 32.9786 54.4402 33.6232 54.0515L38.2477 51.2784C39.1768 50.7217 40.4235 50.8436 41.2258 51.5652L51.7192 61.0089C52 61.2636 52.1613 61.625 52.1613 62.0034C52.1613 62.7402 51.5628 63.3387 50.826 63.3387ZM74.5161 48.9097L53.593 59.3722C53.5251 59.3 53.4542 59.2315 53.3796 59.1648L42.888 49.7211C41.9687 48.8915 40.7801 48.4355 39.5418 48.4355C38.6364 48.4355 37.7474 48.6817 36.9688 49.1486L32.3425 51.923C32.0829 52.0794 31.7864 52.1613 31.4832 52.1613C30.5578 52.1613 29.8065 51.4099 29.8065 50.4846V50.239C29.8065 49.5992 30.1618 49.0255 30.7331 48.7399L37.6607 45.2761C38.8463 44.6824 40.2537 44.5496 41.5315 44.9171L49.336 47.1462L51.2262 47.1936L74.5161 34.9355V48.9097Z" fill="#0771EB"/>
</svg>
