<svg width="68" height="76" viewBox="0 0 68 76" fill="none" xmlns="http://www.w3.org/2000/svg">
<path d="M50.261 58.5391C49.445 58.5391 48.7827 59.2013 48.7827 60.0173C48.7827 60.8333 49.445 61.4956 50.261 61.4956C51.077 61.4956 51.7392 60.8333 51.7392 60.0173C51.7392 59.2013 51.077 58.5391 50.261 58.5391Z" fill="#0771EB"/>
<path d="M53.9006 53.7589L46.8745 51.4173L44.3521 46.3725C46.6245 44.0596 48.2022 40.9993 48.7343 37.8073L49.0488 35.9217H51.7391C54.1845 35.9217 56.1739 33.9323 56.1739 31.487V22.1739C56.1739 9.94722 46.2267 0 34 0C21.742 0 11.8261 9.91869 11.8261 22.1739V31.487C11.8261 33.414 13.0621 35.0573 14.7826 35.6675V37.4C14.7826 39.8453 16.7721 41.8348 19.2174 41.8348H20.5156C21.1564 43.2269 21.9859 44.5162 22.9952 45.6744C23.2046 45.9151 23.4229 46.1483 23.6466 46.3753L21.1255 51.4173L14.0992 53.759C5.9296 56.4832 0 65.0835 0 74.2087C0 75.0251 0.661817 75.687 1.47826 75.687H66.5217C67.338 75.687 68 75.0251 68 74.2087C68 65.0835 62.0705 56.4832 53.9006 53.7589ZM53.2174 31.487C53.2174 32.3021 52.5542 32.9652 51.7391 32.9652H49.483C49.8588 30.0545 50.1092 26.9571 50.2099 23.9064C50.2128 23.8204 50.2152 23.7367 50.2179 23.6522H53.2174V31.487ZM16.2609 32.9652C15.4458 32.9652 14.7826 32.3021 14.7826 31.487V23.6522H17.7832C17.7881 23.8064 17.7932 23.9613 17.799 24.1172C17.7991 24.1226 17.7994 24.1277 17.7996 24.1331C17.7996 24.1335 17.7996 24.1339 17.7996 24.1344C17.9031 27.1015 18.1502 30.1185 18.5174 32.9651H16.2609V32.9652ZM19.2174 38.8783C18.4023 38.8783 17.7391 38.2151 17.7391 37.4V35.9217H18.951L19.2656 37.8079C19.3256 38.1663 19.3994 38.5235 19.4847 38.8783H19.2174ZM17.7416 20.6957H14.8388C15.5875 10.7882 23.8557 2.95652 34 2.95652C44.0992 2.95652 52.4038 10.7872 53.1611 20.6957H50.2585C50.1521 12.5317 43.5039 5.91304 35.3232 5.91304H32.6771C24.4966 5.91304 17.8479 12.5317 17.7416 20.6957ZM32.677 8.86957H35.323C41.947 8.86957 47.3082 14.2875 47.3043 20.9041C47.3043 21.3693 47.3007 21.7743 47.2928 22.1429C47.2928 22.1476 47.2927 22.1525 47.2927 22.1574L45.4437 21.8932C40.4205 21.1759 35.6777 18.8045 32.0888 15.2156C31.8114 14.9384 31.4355 14.7826 31.0435 14.7826C27.0735 14.7826 23.2731 16.5914 20.761 19.6473C21.3801 13.6279 26.4687 8.86957 32.677 8.86957ZM22.5494 38.8783C21.8094 36.4165 20.9626 29.173 20.7755 24.5313L22.7651 21.8784C24.5923 19.4428 27.4352 17.9295 30.4593 17.7558C34.4383 21.5425 39.5859 24.0432 45.0256 24.8199L47.2019 25.1309C47.0564 28.2182 46.7592 31.3164 46.3333 34.1657C46.3331 34.1666 46.333 34.1676 46.3328 34.1687C46.1974 35.0848 46.0907 35.6743 45.8181 37.3209C45.0352 42.0166 41.5314 46.2629 36.9061 47.4194C35.0026 47.8946 32.9971 47.8945 31.0946 47.4194C28.2065 46.6974 25.5584 44.6991 23.8494 41.8348H26.863C27.4732 43.5553 29.1163 44.7913 31.0435 44.7913H34C36.4502 44.7913 38.4348 42.8069 38.4348 40.3565C38.4348 37.9112 36.4453 35.9217 34 35.9217H31.0435C29.0734 35.9217 27.4546 37.1942 26.8604 38.8783H22.5494ZM30.9192 50.4111C31.9331 50.6247 32.9668 50.7339 34 50.7339C34.8088 50.7339 35.6177 50.6662 36.4174 50.5349L33.8053 53.2974L30.9192 50.4111ZM31.773 55.4465L27.0843 60.4048C25.7934 57.9341 24.6843 55.3626 23.7746 52.7302L25.5353 49.2086L31.773 55.4465ZM42.2141 48.7078L44.2251 52.73C43.3139 55.3669 42.2045 57.9393 40.915 60.4071L35.8966 55.3887L42.2141 48.7078ZM29.5652 40.3565C29.5652 39.5404 30.2272 38.8783 31.0435 38.8783H34C34.8151 38.8783 35.4783 39.5414 35.4783 40.3565C35.4783 41.1728 34.8161 41.8348 34 41.8348H31.0435C30.2284 41.8348 29.5652 41.1716 29.5652 40.3565ZM3.01565 72.7304C3.60149 65.4073 8.47517 58.751 15.0342 56.5637L21.2568 54.49C22.3968 57.6424 23.8092 60.7064 25.4644 63.6168C25.4672 63.6218 25.4698 63.6269 25.4727 63.6317L25.4728 63.632C26.6822 65.7591 28.0433 67.8377 29.5191 69.811L31.3377 72.7304H3.01565ZM34 71.4127L31.9952 68.1941C31.9727 68.158 31.9488 68.123 31.9233 68.089C30.7262 66.4922 29.6096 64.8222 28.5925 63.1129L33.8644 57.5378L39.4195 63.0928C38.3956 64.8145 37.2751 66.4914 36.077 68.0887C36.0045 68.1852 36.1073 68.0331 34 71.4127ZM36.6623 72.7304L38.4808 69.8112C39.963 67.8303 41.334 65.735 42.5554 63.583C42.5628 63.57 42.5698 63.5566 42.5772 63.5436C42.5781 63.542 42.5789 63.5405 42.5798 63.5389C44.214 60.6563 45.6116 57.6189 46.7432 54.49L52.9656 56.5637C59.5248 58.751 64.3985 65.4073 64.9844 72.7304H36.6623Z" fill="#0771EB"/>
<path d="M60.5415 66.748C59.5536 64.7705 58.1065 63.0138 56.3567 61.6677C55.7095 61.1696 54.7815 61.2907 54.2838 61.9379C53.7859 62.5851 53.907 63.5131 54.554 64.011C55.9515 65.0861 57.1072 66.4894 57.8965 68.0693C58.2621 68.8009 59.1505 69.0953 59.8796 68.7311C60.6098 68.3663 60.9062 67.4784 60.5415 66.748Z" fill="#0771EB"/>
</svg>
