<svg width="77" height="94" viewBox="0 0 77 94" fill="none" xmlns="http://www.w3.org/2000/svg">
<path d="M73.3917 93.036C73.9123 93.036 74.4212 92.8815 74.8541 92.5921C75.287 92.3027 75.6243 91.8914 75.8235 91.4102C76.0228 90.9289 76.0749 90.3994 75.9733 89.8885C75.8718 89.3776 75.6211 88.9084 75.2529 88.5401C74.8848 88.1717 74.4158 87.9209 73.9052 87.8193C73.3946 87.7177 72.8654 87.7698 72.3844 87.9692C71.9034 88.1685 71.4924 88.506 71.2031 88.9391C70.9139 89.3722 70.7595 89.8814 70.7595 90.4023C70.7595 91.1008 71.0368 91.7707 71.5305 92.2646C72.0241 92.7585 72.6936 93.036 73.3917 93.036Z" fill="white" fill-opacity="0.3"/>
<path d="M73.3798 75.4824C74.8269 75.4824 76.0001 74.3086 76.0001 72.8606C76.0001 71.4127 74.8269 70.2389 73.3798 70.2389C71.9327 70.2389 70.7595 71.4127 70.7595 72.8606C70.7595 74.3086 71.9327 75.4824 73.3798 75.4824Z" fill="white" fill-opacity="0.3"/>
<path d="M73.3798 57.9286C74.8269 57.9286 76.0001 56.7549 76.0001 55.3069C76.0001 53.859 74.8269 52.6852 73.3798 52.6852C71.9327 52.6852 70.7595 53.859 70.7595 55.3069C70.7595 56.7549 71.9327 57.9286 73.3798 57.9286Z" fill="white" fill-opacity="0.3"/>
<path d="M70.7593 37.7532C70.7569 38.2746 70.9093 38.7849 71.1971 39.2196C71.4849 39.6543 71.8952 39.9937 72.3759 40.1949C72.8567 40.396 73.3863 40.4499 73.8977 40.3496C74.4091 40.2493 74.8792 39.9995 75.2485 39.6316C75.6178 39.2638 75.8697 38.7945 75.9722 38.2833C76.0747 37.7721 76.0233 37.242 75.8244 36.76C75.6256 36.2781 75.2882 35.8661 74.8551 35.5762C74.422 35.2862 73.9126 35.1315 73.3915 35.1315C72.6955 35.1315 72.0277 35.4073 71.5345 35.8986C71.0412 36.39 70.7625 37.0568 70.7593 37.7532Z" fill="white" fill-opacity="0.3"/>
<path d="M70.7595 20.2591C70.7595 20.78 70.9139 21.2892 71.2031 21.7223C71.4924 22.1554 71.9034 22.493 72.3844 22.6923C72.8654 22.8916 73.3946 22.9438 73.9052 22.8422C74.4158 22.7406 74.8848 22.4897 75.2529 22.1214C75.6211 21.7531 75.8718 21.2838 75.9733 20.7729C76.0749 20.2621 76.0228 19.7325 75.8235 19.2513C75.6243 18.77 75.287 18.3587 74.8541 18.0693C74.4212 17.7799 73.9123 17.6255 73.3917 17.6255C72.6936 17.6255 72.0241 17.903 71.5305 18.3969C71.0368 18.8908 70.7595 19.5606 70.7595 20.2591Z" fill="white" fill-opacity="0.3"/>
<path d="M73.3798 5.27948C74.8269 5.27948 76.0001 4.10569 76.0001 2.65774C76.0001 1.2098 74.8269 0.0360107 73.3798 0.0360107C71.9327 0.0360107 70.7595 1.2098 70.7595 2.65774C70.7595 4.10569 71.9327 5.27948 73.3798 5.27948Z" fill="white" fill-opacity="0.3"/>
<path d="M59.2301 93.036C59.7512 93.0383 60.2613 92.8859 60.6957 92.5979C61.1302 92.31 61.4694 91.8995 61.6704 91.4184C61.8715 90.9374 61.9253 90.4075 61.8251 89.8958C61.7249 89.3842 61.4751 88.9138 61.1075 88.5443C60.7399 88.1748 60.2709 87.9228 59.76 87.8202C59.249 87.7176 58.7192 87.769 58.2375 87.968C57.7559 88.167 57.3441 88.5045 57.0543 88.9379C56.7645 89.3713 56.6099 89.8809 56.6099 90.4023C56.6099 91.0987 56.8855 91.7668 57.3766 92.2604C57.8677 92.7539 58.5341 93.0328 59.2301 93.036Z" fill="white" fill-opacity="0.3"/>
<path d="M59.2301 75.4824C60.6773 75.4824 61.8504 74.3086 61.8504 72.8606C61.8504 71.4127 60.6773 70.2389 59.2301 70.2389C57.783 70.2389 56.6099 71.4127 56.6099 72.8606C56.6099 74.3086 57.783 75.4824 59.2301 75.4824Z" fill="white" fill-opacity="0.3"/>
<path d="M59.2301 57.9286C60.6773 57.9286 61.8504 56.7549 61.8504 55.3069C61.8504 53.859 60.6773 52.6852 59.2301 52.6852C57.783 52.6852 56.6099 53.859 56.6099 55.3069C56.6099 56.7549 57.783 57.9286 59.2301 57.9286Z" fill="white" fill-opacity="0.3"/>
<path d="M56.6099 37.7532C56.6075 38.2751 56.7602 38.7859 57.0485 39.2209C57.3368 39.6558 57.7478 39.9952 58.2293 40.196C58.7107 40.3968 59.2409 40.45 59.7526 40.3487C60.2643 40.2475 60.7344 39.9964 61.1033 39.6274C61.4721 39.2584 61.7231 38.788 61.8242 38.276C61.9254 37.764 61.8723 37.2335 61.6716 36.7518C61.4709 36.27 61.1317 35.8589 60.697 35.5704C60.2623 35.2819 59.7518 35.1291 59.2302 35.1315C58.5362 35.1346 57.8715 35.4119 57.3808 35.9028C56.8901 36.3938 56.613 37.0589 56.6099 37.7532Z" fill="white" fill-opacity="0.3"/>
<path d="M56.6099 20.259C56.6099 20.7804 56.7645 21.2901 57.0543 21.7235C57.3441 22.1568 57.7559 22.4944 58.2375 22.6933C58.7192 22.8923 59.249 22.9438 59.76 22.8412C60.2709 22.7386 60.7399 22.4866 61.1075 22.1171C61.4751 21.7475 61.7249 21.2772 61.8251 20.7655C61.9253 20.2538 61.8715 19.7239 61.6704 19.2429C61.4694 18.7619 61.1302 18.3514 60.6957 18.0634C60.2613 17.7755 59.7512 17.623 59.2301 17.6254C58.5341 17.6285 57.8677 17.9074 57.3766 18.401C56.8855 18.8945 56.6099 19.5626 56.6099 20.259Z" fill="white" fill-opacity="0.3"/>
<path d="M59.2301 5.27948C60.6773 5.27948 61.8504 4.10569 61.8504 2.65774C61.8504 1.2098 60.6773 0.0360107 59.2301 0.0360107C57.783 0.0360107 56.6099 1.2098 56.6099 2.65774C56.6099 4.10569 57.783 5.27948 59.2301 5.27948Z" fill="white" fill-opacity="0.3"/>
<path d="M45.0451 93.036C45.5662 93.0383 46.0763 92.8859 46.5107 92.5979C46.9451 92.31 47.2844 91.8995 47.4854 91.4184C47.6865 90.9374 47.7403 90.4075 47.6401 89.8958C47.5399 89.3842 47.2901 88.9138 46.9225 88.5443C46.5548 88.1748 46.0858 87.9228 45.5749 87.8202C45.064 87.7176 44.5342 87.769 44.0525 87.968C43.5708 88.167 43.159 88.5045 42.8693 88.9379C42.5795 89.3713 42.4248 89.8809 42.4248 90.4023C42.4233 90.7476 42.4899 91.0898 42.6209 91.4093C42.7518 91.7287 42.9446 92.0191 43.1881 92.2639C43.4315 92.5086 43.7209 92.7028 44.0396 92.8352C44.3583 92.9677 44.7 93.036 45.0451 93.036Z" fill="white" fill-opacity="0.3"/>
<path d="M42.4604 72.8606C42.4604 73.3791 42.6141 73.886 42.902 74.3172C43.19 74.7483 43.5992 75.0844 44.078 75.2828C44.5568 75.4812 45.0836 75.5331 45.5919 75.432C46.1002 75.3308 46.5671 75.0811 46.9335 74.7145C47.3 74.3478 47.5496 73.8807 47.6507 73.3721C47.7518 72.8635 47.6999 72.3364 47.5015 71.8573C47.3032 71.3783 46.9674 70.9688 46.5365 70.6807C46.1056 70.3927 45.599 70.2389 45.0807 70.2389C44.3867 70.242 43.7221 70.5192 43.2314 71.0102C42.7406 71.5012 42.4636 72.1663 42.4604 72.8606Z" fill="white" fill-opacity="0.3"/>
<path d="M42.4604 55.3069C42.4604 55.8254 42.6141 56.3323 42.902 56.7635C43.19 57.1946 43.5992 57.5306 44.078 57.7291C44.5568 57.9275 45.0836 57.9794 45.5919 57.8783C46.1002 57.7771 46.5671 57.5274 46.9335 57.1608C47.3 56.7941 47.5496 56.327 47.6507 55.8184C47.7518 55.3098 47.6999 54.7827 47.5015 54.3036C47.3032 53.8246 46.9674 53.4151 46.5365 53.127C46.1056 52.8389 45.599 52.6852 45.0807 52.6852C44.3858 52.6852 43.7193 52.9614 43.2279 53.4531C42.7365 53.9447 42.4604 54.6116 42.4604 55.3069Z" fill="white" fill-opacity="0.3"/>
<path d="M42.4604 37.7532C42.4604 38.2717 42.6141 38.7786 42.902 39.2098C43.19 39.6409 43.5992 39.9769 44.078 40.1754C44.5568 40.3738 45.0836 40.4257 45.5919 40.3246C46.1002 40.2234 46.5671 39.9737 46.9335 39.607C47.3 39.2404 47.5496 38.7732 47.6507 38.2647C47.7518 37.7561 47.6999 37.229 47.5015 36.7499C47.3032 36.2708 46.9674 35.8614 46.5365 35.5733C46.1056 35.2852 45.599 35.1315 45.0807 35.1315C44.3867 35.1346 43.7221 35.4118 43.2314 35.9028C42.7406 36.3938 42.4636 37.0588 42.4604 37.7532Z" fill="white" fill-opacity="0.3"/>
<path d="M42.4604 20.2591C42.4628 20.7772 42.6185 21.2829 42.9078 21.7124C43.1972 22.142 43.6072 22.4762 44.0862 22.6728C44.5652 22.8694 45.0917 22.9196 45.5992 22.8171C46.1067 22.7146 46.5725 22.464 46.9377 22.0969C47.303 21.7297 47.5514 21.2626 47.6515 20.7543C47.7516 20.2461 47.699 19.7196 47.5004 19.2412C47.3017 18.7628 46.9659 18.3541 46.5352 18.0665C46.1046 17.779 45.5985 17.6255 45.0807 17.6255C44.3847 17.6286 43.7182 17.9075 43.2272 18.4011C42.7361 18.8946 42.4604 19.5627 42.4604 20.2591Z" fill="white" fill-opacity="0.3"/>
<path d="M42.4605 2.65772C42.4676 3.17618 42.6282 3.68089 42.922 4.10803C43.2157 4.53516 43.6295 4.86554 44.111 5.05739C44.5924 5.24925 45.1199 5.29396 45.6267 5.18586C46.1336 5.07777 46.597 4.82173 46.9584 4.45013C47.3198 4.07852 47.563 3.60803 47.6571 3.09816C47.7513 2.58828 47.6923 2.06192 47.4875 1.58562C47.2827 1.10932 46.9413 0.704476 46.5066 0.422283C46.0718 0.14009 45.5632 -0.00678121 45.045 0.000240508C44.7009 0.00490349 44.3611 0.0773426 44.0449 0.213423C43.7288 0.349504 43.4426 0.546561 43.2026 0.793338C42.9626 1.04011 42.7735 1.33178 42.6462 1.65167C42.5188 1.97156 42.4557 2.31342 42.4605 2.65772Z" fill="white" fill-opacity="0.3"/>
<path d="M30.9312 93.036C31.4523 93.0383 31.9624 92.8859 32.3968 92.5979C32.8312 92.31 33.1705 91.8995 33.3715 91.4184C33.5726 90.9374 33.6264 90.4075 33.5262 89.8958C33.426 89.3842 33.1762 88.9138 32.8086 88.5443C32.4409 88.1748 31.972 87.9228 31.461 87.8202C30.9501 87.7176 30.4203 87.769 29.9386 87.968C29.4569 88.167 29.0451 88.5045 28.7554 88.9379C28.4656 89.3713 28.3109 89.8809 28.3109 90.4023C28.3094 90.7476 28.376 91.0898 28.507 91.4093C28.638 91.7287 28.8307 92.0191 29.0742 92.2639C29.3177 92.5086 29.607 92.7028 29.9257 92.8352C30.2444 92.9677 30.5861 93.036 30.9312 93.036Z" fill="white" fill-opacity="0.3"/>
<path d="M30.9312 75.4824C32.3783 75.4824 33.5515 74.3086 33.5515 72.8606C33.5515 71.4127 32.3783 70.2389 30.9312 70.2389C29.4841 70.2389 28.3109 71.4127 28.3109 72.8606C28.3109 74.3086 29.4841 75.4824 30.9312 75.4824Z" fill="white" fill-opacity="0.3"/>
<path d="M30.9312 57.9286C32.3783 57.9286 33.5515 56.7549 33.5515 55.3069C33.5515 53.859 32.3783 52.6852 30.9312 52.6852C29.4841 52.6852 28.3109 53.859 28.3109 55.3069C28.3109 56.7549 29.4841 57.9286 30.9312 57.9286Z" fill="white" fill-opacity="0.3"/>
<path d="M28.3705 37.7532C28.3705 38.2717 28.5242 38.7786 28.8121 39.2098C29.1 39.6409 29.5092 39.9769 29.988 40.1754C30.4668 40.3738 30.9937 40.4257 31.502 40.3246C32.0102 40.2234 32.4771 39.9737 32.8436 39.607C33.21 39.2404 33.4596 38.7732 33.5607 38.2647C33.6618 37.7561 33.6099 37.229 33.4116 36.7499C33.2133 36.2708 32.8774 35.8614 32.4465 35.5733C32.0156 35.2852 31.509 35.1315 30.9908 35.1315C30.2958 35.1315 29.6293 35.4077 29.1379 35.8994C28.6465 36.391 28.3705 37.0579 28.3705 37.7532Z" fill="white" fill-opacity="0.3"/>
<path d="M28.3705 20.2591C28.3729 20.7772 28.5285 21.2829 28.8179 21.7124C29.1072 22.142 29.5173 22.4762 29.9963 22.6728C30.4753 22.8694 31.0017 22.9196 31.5092 22.8171C32.0167 22.7146 32.4825 22.464 32.8478 22.0969C33.213 21.7297 33.4614 21.2626 33.5616 20.7543C33.6617 20.2461 33.6091 19.7196 33.4105 19.2412C33.2118 18.7628 32.8759 18.3541 32.4453 18.0665C32.0146 17.779 31.5085 17.6255 30.9908 17.6255C30.6457 17.6255 30.304 17.6937 29.9853 17.8262C29.6666 17.9587 29.3772 18.1529 29.1338 18.3976C28.8903 18.6423 28.6975 18.9327 28.5665 19.2522C28.4356 19.5716 28.3689 19.9138 28.3705 20.2591Z" fill="white" fill-opacity="0.3"/>
<path d="M30.9312 5.27948C32.3783 5.27948 33.5515 4.10569 33.5515 2.65774C33.5515 1.2098 32.3783 0.0360107 30.9312 0.0360107C29.4841 0.0360107 28.3109 1.2098 28.3109 2.65774C28.3109 4.10569 29.4841 5.27948 30.9312 5.27948Z" fill="white" fill-opacity="0.3"/>
<path d="M16.7817 93.036C17.3028 93.0383 17.8128 92.8859 18.2473 92.5979C18.6817 92.31 19.0209 91.8995 19.222 91.4184C19.423 90.9374 19.4769 90.4075 19.3766 89.8958C19.2764 89.3842 19.0267 88.9138 18.659 88.5443C18.2914 88.1748 17.8224 87.9228 17.3115 87.8202C16.8006 87.7176 16.2707 87.769 15.7891 87.968C15.3074 88.167 14.8956 88.5045 14.6058 88.9379C14.3161 89.3713 14.1614 89.8809 14.1614 90.4023C14.1598 90.7476 14.2264 91.0898 14.3574 91.4093C14.4884 91.7287 14.6812 92.0191 14.9246 92.2639C15.1681 92.5086 15.4575 92.7028 15.7762 92.8352C16.0949 92.9677 16.4366 93.036 16.7817 93.036Z" fill="white" fill-opacity="0.3"/>
<path d="M16.7698 75.4824C18.217 75.4824 19.3901 74.3086 19.3901 72.8606C19.3901 71.4127 18.217 70.2389 16.7698 70.2389C15.3227 70.2389 14.1495 71.4127 14.1495 72.8606C14.1495 74.3086 15.3227 75.4824 16.7698 75.4824Z" fill="white" fill-opacity="0.3"/>
<path d="M16.7698 57.9286C18.217 57.9286 19.3901 56.7549 19.3901 55.3069C19.3901 53.859 18.217 52.6852 16.7698 52.6852C15.3227 52.6852 14.1495 53.859 14.1495 55.3069C14.1495 56.7549 15.3227 57.9286 16.7698 57.9286Z" fill="white" fill-opacity="0.3"/>
<path d="M14.1614 37.7532C14.1614 38.2717 14.315 38.7786 14.603 39.2098C14.8909 39.6409 15.3001 39.9769 15.7789 40.1754C16.2577 40.3738 16.7846 40.4257 17.2928 40.3246C17.8011 40.2234 18.268 39.9737 18.6345 39.607C19.0009 39.2404 19.2505 38.7732 19.3516 38.2647C19.4527 37.7561 19.4008 37.229 19.2025 36.7499C19.0041 36.2708 18.6683 35.8614 18.2374 35.5733C17.8065 35.2852 17.2999 35.1315 16.7817 35.1315C16.4376 35.1315 16.0968 35.1993 15.7789 35.331C15.461 35.4628 15.1722 35.6559 14.9288 35.8994C14.6855 36.1428 14.4925 36.4318 14.3608 36.7499C14.2292 37.068 14.1614 37.4089 14.1614 37.7532Z" fill="white" fill-opacity="0.3"/>
<path d="M14.1614 20.2591C14.1638 20.7772 14.3194 21.2829 14.6088 21.7124C14.8981 22.142 15.3082 22.4762 15.7872 22.6728C16.2662 22.8694 16.7926 22.9196 17.3001 22.8171C17.8076 22.7146 18.2734 22.464 18.6387 22.0969C19.0039 21.7297 19.2523 21.2626 19.3524 20.7543C19.4526 20.2461 19.4 19.7196 19.2013 19.2412C19.0027 18.7628 18.6668 18.3541 18.2362 18.0665C17.8055 17.779 17.2994 17.6255 16.7817 17.6255C16.4366 17.6255 16.0949 17.6937 15.7762 17.8262C15.4575 17.9587 15.1681 18.1529 14.9246 18.3976C14.6812 18.6423 14.4884 18.9327 14.3574 19.2522C14.2264 19.5716 14.1598 19.9138 14.1614 20.2591Z" fill="white" fill-opacity="0.3"/>
<path d="M16.7698 5.27948C18.217 5.27948 19.3901 4.10569 19.3901 2.65774C19.3901 1.2098 18.217 0.0360107 16.7698 0.0360107C15.3227 0.0360107 14.1495 1.2098 14.1495 2.65774C14.1495 4.10569 15.3227 5.27948 16.7698 5.27948Z" fill="white" fill-opacity="0.3"/>
<path d="M2.6322 93.036C3.1528 93.036 3.66171 92.8815 4.09457 92.5921C4.52743 92.3027 4.8648 91.8914 5.06403 91.4102C5.26325 90.9289 5.31538 90.3994 5.21382 89.8885C5.11225 89.3776 4.86156 88.9084 4.49345 88.5401C4.12533 88.1717 3.65631 87.9209 3.14572 87.8193C2.63512 87.7177 2.10587 87.7698 1.6249 87.9692C1.14393 88.1685 0.73285 88.506 0.443622 88.9391C0.154393 89.3722 0 89.8814 0 90.4023C0 90.7482 0.0680859 91.0906 0.200366 91.4102C0.332646 91.7297 0.526546 92.02 0.770967 92.2646C1.01539 92.5092 1.30555 92.7031 1.6249 92.8355C1.94425 92.9679 2.28653 93.036 2.6322 93.036Z" fill="white" fill-opacity="0.3"/>
<path d="M2.6958e-05 72.8606C-0.00233098 73.382 0.150041 73.8924 0.437833 74.327C0.725624 74.7617 1.1359 75.1011 1.61666 75.3023C2.09741 75.5034 2.62702 75.5573 3.1384 75.457C3.64978 75.3568 4.11991 75.1069 4.48922 74.739C4.85853 74.3712 5.1104 73.9019 5.21293 73.3907C5.31547 72.8795 5.26403 72.3494 5.06516 71.8675C4.86629 71.3855 4.52895 70.9735 4.09583 70.6836C3.66271 70.3937 3.15333 70.2389 2.63222 70.2389C1.93618 70.2389 1.26848 70.5147 0.775193 71.006C0.281902 71.4974 0.00317647 72.1642 2.6958e-05 72.8606Z" fill="white" fill-opacity="0.3"/>
<path d="M2.6958e-05 55.3069C-0.00233098 55.8283 0.150041 56.3387 0.437833 56.7734C0.725624 57.208 1.1359 57.5474 1.61666 57.7486C2.09741 57.9498 2.62702 58.0036 3.1384 57.9033C3.64978 57.8031 4.11991 57.5532 4.48922 57.1853C4.85853 56.8175 5.1104 56.3483 5.21293 55.8371C5.31547 55.3259 5.26403 54.7957 5.06516 54.3138C4.86629 53.8318 4.52895 53.4198 4.09583 53.1299C3.66271 52.84 3.15333 52.6852 2.63222 52.6852C2.28712 52.6836 1.94512 52.7503 1.62583 52.8813C1.30655 53.0124 1.01628 53.2053 0.771703 53.4489C0.527125 53.6925 0.333054 53.982 0.200629 54.3009C0.0682035 54.6198 2.33928e-05 54.9616 2.6958e-05 55.3069Z" fill="white" fill-opacity="0.3"/>
<path d="M2.6958e-05 37.7532C-0.00233098 38.2746 0.150041 38.7849 0.437833 39.2196C0.725624 39.6543 1.1359 39.9937 1.61666 40.1949C2.09741 40.396 2.62702 40.4499 3.1384 40.3496C3.64978 40.2493 4.11991 39.9995 4.48922 39.6316C4.85853 39.2638 5.1104 38.7945 5.21293 38.2833C5.31547 37.7721 5.26403 37.242 5.06516 36.76C4.86629 36.2781 4.52895 35.8661 4.09583 35.5762C3.66271 35.2862 3.15333 35.1315 2.63222 35.1315C1.93618 35.1315 1.26848 35.4073 0.775193 35.8986C0.281902 36.39 0.00317647 37.0568 2.6958e-05 37.7532Z" fill="white" fill-opacity="0.3"/>
<path d="M0 20.2591C0 20.78 0.154393 21.2892 0.443622 21.7223C0.73285 22.1554 1.14393 22.493 1.6249 22.6923C2.10587 22.8916 2.63512 22.9438 3.14572 22.8422C3.65631 22.7406 4.12533 22.4897 4.49345 22.1214C4.86156 21.7531 5.11225 21.2838 5.21382 20.7729C5.31538 20.2621 5.26325 19.7325 5.06403 19.2513C4.8648 18.77 4.52743 18.3587 4.09457 18.0693C3.66171 17.7799 3.1528 17.6255 2.6322 17.6255C1.9341 17.6255 1.2646 17.903 0.770967 18.3969C0.277336 18.8908 0 19.5606 0 20.2591Z" fill="white" fill-opacity="0.3"/>
<path d="M2.6958e-05 2.65777C-0.00233098 3.17916 0.150041 3.68951 0.437833 4.12418C0.725624 4.55885 1.1359 4.89826 1.61666 5.09943C2.09741 5.30059 2.62702 5.35445 3.1384 5.25418C3.64978 5.15391 4.11991 4.90402 4.48922 4.53618C4.85853 4.16833 5.1104 3.69909 5.21293 3.18788C5.31547 2.67668 5.26403 2.14654 5.06516 1.66461C4.86629 1.18267 4.52895 0.770648 4.09583 0.480728C3.66271 0.190809 3.15333 0.0360432 2.63222 0.0360378C2.28712 0.0344683 1.94512 0.101126 1.62583 0.232178C1.30655 0.363229 1.01628 0.556094 0.771703 0.7997C0.527125 1.04331 0.333054 1.33286 0.200629 1.65172C0.0682035 1.97058 2.33928e-05 2.31248 2.6958e-05 2.65777Z" fill="white" fill-opacity="0.3"/>
</svg>
