<svg width="26" height="26" viewBox="0 0 26 26" fill="none" xmlns="http://www.w3.org/2000/svg">
<path d="M13 26C20.1797 26 26 20.1797 26 13C26 5.8203 20.1797 0 13 0C5.8203 0 0 5.8203 0 13C0 20.1797 5.8203 26 13 26Z" fill="white"/>
<path d="M16.9 6.66211H9.09998C7.74581 6.66211 6.66248 7.74544 6.66248 9.09962V16.8996C6.66248 18.2538 7.74581 19.3371 9.09998 19.3371H16.9C18.2542 19.3371 19.3375 18.2538 19.3375 16.8996V9.09961C19.3375 7.74544 18.2541 6.66211 16.9 6.66211ZM17.6042 8.12461H17.875V10.2913H15.7083V8.12461H17.6042ZM11.2125 11.6996C11.5917 11.1579 12.2958 10.7788 13 10.7788C13.7042 10.7788 14.4083 11.1579 14.7875 11.6996C15.0583 12.0788 15.2208 12.5121 15.2208 12.9996C15.2208 14.2454 14.1917 15.2204 13 15.2204C11.8083 15.2204 10.7792 14.2454 10.7792 12.9996C10.7791 12.5121 10.9417 12.0788 11.2125 11.6996ZM18.0917 16.8996C18.0917 17.5496 17.55 18.0913 16.9 18.0913H9.09998C8.44998 18.0913 7.90831 17.5496 7.90831 16.8996V11.6996H9.80414C9.64164 12.0788 9.53332 12.5663 9.53332 12.9996C9.53332 14.8954 11.1041 16.4663 13 16.4663C14.8958 16.4663 16.4666 14.8954 16.4666 12.9996C16.4666 12.5663 16.3583 12.0788 16.1958 11.6996H18.0916L18.0917 16.8996Z" fill="#125AAC"/>
</svg>
