<svg width="21" height="21" viewBox="0 0 21 21" fill="none" xmlns="http://www.w3.org/2000/svg">
<g clip-path="url(#clip0_6_240)">
<path d="M14.3132 17.5309L20.8102 10.9682C21.0682 10.7077 21.0583 10.2922 20.8102 10.031L14.3126 3.46836C14.0559 3.20976 13.6405 3.20976 13.3845 3.46836C13.1279 3.72761 13.1279 4.14699 13.3845 4.40624L18.7611 9.83738L0.656288 9.83738C0.29398 9.83738 -2.48773e-05 10.1341 -2.48817e-05 10.5003C-2.48861e-05 10.8665 0.294033 11.1632 0.656288 11.1632L18.7619 11.1632L13.3852 16.5944C13.1286 16.8529 13.1286 17.273 13.3852 17.5316C13.6411 17.7901 14.0566 17.7901 14.3132 17.5309Z" fill="#0771EB"/>
</g>
<defs>
<clipPath id="clip0_6_240">
<rect width="21" height="21" fill="white" transform="translate(21) rotate(90)"/>
</clipPath>
</defs>
</svg>
