<svg width="21" height="21" viewBox="0 0 21 21" fill="none" xmlns="http://www.w3.org/2000/svg">
<g clip-path="url(#clip0_6_243)">
<path d="M6.68678 17.5309L0.189772 10.9682C-0.0681705 10.7077 -0.0582958 10.2922 0.189772 10.031L6.68744 3.46836C6.94407 3.20976 7.35951 3.20976 7.61549 3.46836C7.87213 3.72761 7.87213 4.14699 7.61549 4.40624L2.23885 9.83738L20.3437 9.83738C20.706 9.83738 21 10.1341 21 10.5003C21 10.8665 20.706 11.1632 20.3437 11.1632L2.23815 11.1632L7.61478 16.5944C7.87142 16.8529 7.87142 17.273 7.61478 17.5316C7.35886 17.7901 6.94336 17.7901 6.68678 17.5309Z" fill="#0771EB"/>
</g>
<defs>
<clipPath id="clip0_6_243">
<rect width="21" height="21" fill="white" transform="matrix(1.19249e-08 1 1 -1.19249e-08 0 0)"/>
</clipPath>
</defs>
</svg>
