<svg width="27" height="27" viewBox="0 0 27 27" fill="none" xmlns="http://www.w3.org/2000/svg">
<g clip-path="url(#clip0_6_487)">
<path d="M13.5 0.540039C6.34234 0.540039 0.540039 6.34234 0.540039 13.5C0.540039 20.6577 6.34234 26.46 13.5 26.46C20.6577 26.46 26.46 20.6577 26.46 13.5C26.46 6.34234 20.6577 0.540039 13.5 0.540039ZM18.7718 11.1564C18.7772 11.2671 18.7785 11.3778 18.7785 11.4858C18.7785 14.8608 16.2122 18.7502 11.5169 18.7502C10.1295 18.7525 8.77094 18.354 7.60459 17.6027C7.80304 17.627 8.00689 17.6364 8.21344 17.6364C9.40954 17.6364 10.5098 17.2301 11.3832 16.5443C10.851 16.5338 10.3352 16.3576 9.90784 16.0401C9.48048 15.7226 9.16283 15.2797 8.99914 14.7731C9.3814 14.8458 9.77519 14.8305 10.1507 14.7285C9.57296 14.6117 9.05341 14.2987 8.68015 13.8425C8.30688 13.3863 8.10288 12.8151 8.10274 12.2256V12.1946C8.44699 12.3849 8.84119 12.501 9.25969 12.5145C8.71807 12.154 8.33465 11.6001 8.18785 10.9663C8.04105 10.3324 8.14196 9.66638 8.46994 9.10444C9.11113 9.89284 9.91074 10.5378 10.817 10.9976C11.7233 11.4573 12.716 11.7216 13.7309 11.7734C13.6019 11.2257 13.6574 10.6507 13.8889 10.1379C14.1203 9.625 14.5147 9.20298 15.0108 8.9374C15.5068 8.67182 16.0767 8.57757 16.6319 8.6693C17.187 8.76103 17.6963 9.0336 18.0806 9.44464C18.6519 9.33161 19.1997 9.12206 19.7006 8.82499C19.5102 9.41647 19.1115 9.91873 18.5787 10.2384C19.0848 10.1775 19.5789 10.0414 20.0448 9.83479C19.7026 10.3476 19.2715 10.7952 18.7718 11.1564Z" fill="white"/>
</g>
<defs>
<clipPath id="clip0_6_487">
<rect width="27" height="27" fill="white"/>
</clipPath>
</defs>
</svg>
