<svg width="25" height="26" viewBox="0 0 25 26" fill="none" xmlns="http://www.w3.org/2000/svg">
<path d="M6.56677 14.1725H7.55782V19.5364H8.49542V14.1725H9.50488V13.2939H6.56677V14.1725Z" fill="white"/>
<path d="M14.4946 14.8285C14.1846 14.8285 13.8953 14.9978 13.6235 15.3328V13.2939H12.7808V19.5367H13.6235V19.086C13.9056 19.4341 14.1946 19.6009 14.4946 19.6009C14.8299 19.6009 15.0554 19.4244 15.168 19.0781C15.2245 18.8809 15.2534 18.5712 15.2534 18.1407V16.2886C15.2534 15.8482 15.2245 15.5407 15.168 15.3538C15.0557 15.0049 14.8296 14.8285 14.4946 14.8285ZM14.4102 18.2067C14.4102 18.6272 14.2869 18.8344 14.0434 18.8344C13.9051 18.8344 13.7641 18.7681 13.6232 18.6269V15.7922C13.7641 15.6528 13.9051 15.5868 14.0434 15.5868C14.2866 15.5868 14.4102 15.8021 14.4102 16.2216V18.2067Z" fill="white"/>
<path d="M11.2081 18.4395C11.0212 18.7037 10.8445 18.8339 10.6751 18.8339C10.5626 18.8339 10.4984 18.7676 10.478 18.6367C10.4703 18.6096 10.4703 18.5068 10.4703 18.3093V14.8848H9.62732V18.5623C9.62732 18.8909 9.65571 19.1129 9.70174 19.2541C9.7864 19.4899 9.97361 19.6004 10.2447 19.6004C10.5549 19.6004 10.8731 19.4132 11.2081 19.029V19.5364H12.0516V14.8848H11.2081V18.4395Z" fill="white"/>
<path d="M11.9317 10.588C12.2061 10.588 12.3378 10.3703 12.3378 9.93554V7.9583C12.3378 7.52326 12.2061 7.30664 11.9317 7.30664C11.657 7.30664 11.525 7.52352 11.525 7.9583V9.93554C11.525 10.3706 11.657 10.588 11.9317 10.588Z" fill="white"/>
<path d="M12.5 0.75C5.59642 0.75 0 6.34642 0 13.25C0 20.1536 5.59642 25.75 12.5 25.75C19.4036 25.75 25 20.1536 25 13.25C25 6.34642 19.4036 0.75 12.5 0.75ZM13.8903 6.59655H14.7396V10.0574C14.7396 10.2572 14.7396 10.3607 14.7499 10.3886C14.7685 10.5206 14.8355 10.5881 14.9496 10.5881C15.1199 10.5881 15.2987 10.4561 15.4877 10.1894V6.59655H16.3394V11.2971H15.4877V10.7845C15.1486 11.1733 14.8253 11.3618 14.5146 11.3618C14.2404 11.3618 14.0512 11.2505 13.9657 11.0127C13.9187 10.8702 13.8903 10.6454 13.8903 10.3137V6.59655ZM10.6734 8.12928C10.6734 7.62673 10.7588 7.25946 10.9399 7.02187C11.1754 6.70038 11.5072 6.53977 11.9317 6.53977C12.3583 6.53977 12.6898 6.70038 12.9253 7.02187C13.1038 7.25921 13.1893 7.62673 13.1893 8.12928V9.77532C13.1893 10.2751 13.1038 10.6457 12.9253 10.8807C12.6898 11.2014 12.3583 11.3618 11.9317 11.3618C11.5072 11.3618 11.1754 11.2014 10.9399 10.8807C10.7588 10.6457 10.6734 10.2748 10.6734 9.77532V8.12928ZM8.39565 4.98939L9.06624 7.46637L9.71049 4.98939H10.6657L9.52941 8.74258V11.2973H8.58517V8.74258C8.49949 8.2899 8.31049 7.62673 8.00742 6.74693C7.80844 6.16151 7.60102 5.5743 7.40205 4.98939H8.39565ZM19.2292 19.9472C19.0583 20.6886 18.4519 21.2359 17.7217 21.3175C15.9921 21.5106 14.2425 21.5116 12.4992 21.5106C10.7568 21.5116 9.00614 21.5106 7.27698 21.3175C6.5468 21.2359 5.94015 20.6889 5.76982 19.9472C5.5266 18.8912 5.5266 17.738 5.5266 16.6505C5.5266 15.563 5.52967 14.4101 5.77263 13.3538C5.94322 12.6121 6.54936 12.0648 7.27954 11.9835C9.00895 11.7904 10.7593 11.7894 12.5023 11.7904C14.2448 11.7894 15.9951 11.7904 17.7246 11.9835C18.4547 12.0651 19.0614 12.6121 19.2325 13.3538C19.4749 14.4101 19.4734 15.563 19.4734 16.6505C19.4734 17.738 19.4724 18.8912 19.2292 19.9472Z" fill="white"/>
<path d="M17.179 14.8281C16.7478 14.8281 16.413 14.9864 16.1695 15.3049C15.9908 15.5401 15.9092 15.9038 15.9092 16.4008V18.0302C15.9092 18.5245 16.0005 18.8908 16.18 19.1238C16.4232 19.4414 16.7591 19.6002 17.2 19.6002C17.6401 19.6002 17.9857 19.4338 18.2189 19.0959C18.3212 18.9465 18.3877 18.7775 18.4158 18.5908C18.4238 18.5064 18.4337 18.3194 18.4337 18.0476V17.9251H17.5741C17.5741 18.2627 17.5631 18.4501 17.5557 18.4959C17.5076 18.7212 17.3864 18.8338 17.179 18.8338C16.8895 18.8338 16.7478 18.6189 16.7478 18.1887V17.3637H18.4337V16.4002C18.4337 15.9033 18.3496 15.5396 18.1729 15.3043C17.9373 14.9867 17.602 14.8281 17.179 14.8281ZM17.5913 16.6624H16.7483V16.232C16.7483 15.8018 16.8897 15.5867 17.1713 15.5867C17.4501 15.5867 17.5913 15.802 17.5913 16.232V16.6624Z" fill="white"/>
</svg>
